<svg width="391" height="391" viewBox="0 0 391 391" fill="none" xmlns="http://www.w3.org/2000/svg">
<g clip-path="url(#clip0_123_982)">
<path d="M0 139.022C0 90.3599 0 66.0287 9.47032 47.4422C17.8007 31.093 31.093 17.8007 47.4422 9.47032C66.0287 0 90.3599 0 139.022 0H251.978C300.64 0 324.971 0 343.558 9.47032C359.907 17.8007 373.199 31.093 381.53 47.4422C391 66.0287 391 90.3599 391 139.022V251.978C391 300.64 391 324.971 381.53 343.558C373.199 359.907 359.907 373.199 343.558 381.53C324.971 391 300.64 391 251.978 391H139.022C90.3599 391 66.0287 391 47.4422 381.53C31.093 373.199 17.8007 359.907 9.47032 343.558C0 324.971 0 300.64 0 251.978V139.022Z" fill="black"/>
<path d="M289.318 203.966C289.318 210.232 286.968 213.758 281.484 213.758H153.796V214.933C153.796 237.65 163.197 264.676 200.798 264.676C229.391 264.676 256.417 262.326 272.867 260.759H274.042C277.959 260.759 281.093 262.718 281.093 266.634V292.485C281.093 298.752 279.918 301.494 272.867 302.669C247.408 307.369 232.133 309.328 196.881 309.328C157.713 309.328 102.094 288.177 102.094 211.016V182.031C102.094 120.929 136.171 82.5444 196.098 82.5444C256.417 82.5444 289.318 123.671 289.318 182.031V203.966ZM237.224 176.94V175.373C237.224 144.822 220.382 127.196 196.098 127.196C171.814 127.196 154.188 144.43 154.188 175.373V176.94H237.224Z" fill="white"/>
</g>
<defs>
<clipPath id="clip0_123_982">
<rect width="391" height="391" fill="white"/>
</clipPath>
</defs>
</svg>
