<svg width="24" height="24" viewBox="0 0 24 24" fill="none" xmlns="http://www.w3.org/2000/svg">
<mask id="mask0_9_3" style="mask-type:alpha" maskUnits="userSpaceOnUse" x="0" y="0" width="24" height="24">
<g clip-path="url(#clip0_9_3)">
<g clip-path="url(#clip1_9_3)">
<path d="M11.2501 0.28584C11.6767 -0.0985352 12.3236 -0.0985352 12.7501 0.28584L23.6251 10.0358C24.0892 10.4483 24.1267 11.1608 23.7095 11.6249C23.2923 12.089 22.5845 12.1265 22.1205 11.7093L21.7455 11.3718V20.9952C21.7455 22.6499 20.4001 23.9952 18.7455 23.9952H5.24546C3.59077 23.9952 2.24546 22.6499 2.24546 20.9952V11.3718L1.87046 11.7093C1.4064 12.1218 0.698586 12.0843 0.281399 11.6249C-0.135789 11.1655 -0.0936013 10.453 0.365774 10.0358L11.2501 0.28584ZM12.0001 2.63428L4.50015 9.36084V20.9999C4.50015 21.4124 4.83765 21.7499 5.25015 21.7499H7.50015V16.8749C7.50015 15.0093 9.00952 13.4999 10.8751 13.4999H13.1251C14.9908 13.4999 16.5001 15.0093 16.5001 16.8749V21.7499H18.7501C19.1626 21.7499 19.5001 21.4124 19.5001 20.9999V9.36084L12.0001 2.63896V2.63428ZM9.75015 21.7499H14.2501V16.8749C14.2501 16.2515 13.7486 15.7499 13.1251 15.7499H10.8751C10.2517 15.7499 9.75015 16.2515 9.75015 16.8749V21.7499Z" fill="black"/>
</g>
</g>
</mask>
<g mask="url(#mask0_9_3)">
<rect width="24" height="24" fill="black"/>
</g>
<defs>
<clipPath id="clip0_9_3">
<rect width="24" height="24" fill="white"/>
</clipPath>
<clipPath id="clip1_9_3">
<rect width="24" height="24" fill="white"/>
</clipPath>
</defs>
</svg>
