<svg width="20" height="20" viewBox="0 0 20 20" fill="none" xmlns="http://www.w3.org/2000/svg">
<mask id="mask0_6_3" style="mask-type:alpha" maskUnits="userSpaceOnUse" x="0" y="0" width="20" height="20">
<g clip-path="url(#clip0_6_3)">
<path d="M17.5 1.25H2.49609C1.80859 1.25 1.25 1.81641 1.25 2.51172V17.4883C1.25 18.1836 1.80859 18.75 2.49609 18.75H17.5C18.1875 18.75 18.75 18.1836 18.75 17.4883V2.51172C18.75 1.81641 18.1875 1.25 17.5 1.25ZM6.53906 16.25H3.94531V7.89844H6.54297V16.25H6.53906ZM5.24219 3.75C5.64105 3.75 6.02357 3.90845 6.30561 4.19048C6.58765 4.47252 6.74609 4.85505 6.74609 5.25391C6.74609 5.65277 6.58765 6.03529 6.30561 6.31733C6.02357 6.59937 5.64105 6.75781 5.24219 6.75781C4.84333 6.75781 4.4608 6.59937 4.17877 6.31733C3.89673 6.03529 3.73828 5.65277 3.73828 5.25391C3.73828 4.85505 3.89673 4.47252 4.17877 4.19048C4.4608 3.90845 4.84333 3.75 5.24219 3.75ZM16.2617 16.25H13.668V12.1875C13.668 11.2188 13.6484 9.97266 12.3203 9.97266C10.9687 9.97266 10.7617 11.0273 10.7617 12.1172V16.25H8.16797V7.89844H10.6563V9.03906H10.6914C11.0391 8.38281 11.8867 7.69141 13.1484 7.69141C15.7734 7.69141 16.2617 9.42187 16.2617 11.6719V16.25Z" fill="black"/>
</g>
</mask>
<g mask="url(#mask0_6_3)">
<rect width="20" height="20" fill="#717177"/>
</g>
<defs>
<clipPath id="clip0_6_3">
<rect width="17.5" height="20" fill="white" transform="translate(1.25)"/>
</clipPath>
</defs>
</svg>
