<svg width="89" height="35" viewBox="0 0 89 35" fill="none" xmlns="http://www.w3.org/2000/svg">
<path opacity="0.964" fill-rule="evenodd" clip-rule="evenodd" d="M52.1222 2.52081C52.2408 2.52081 52.36 2.52081 52.4786 2.52081C52.4786 6.84946 52.4786 11.1781 52.4786 15.5068C51.2218 15.5237 49.9659 15.5068 48.7102 15.4559C48.3425 14.3327 47.6465 13.4755 46.6222 12.8841C45.3015 12.4393 44.0453 12.5752 42.8537 13.2915C42.1849 13.8908 41.7606 14.6292 41.5806 15.5068C40.3291 15.5235 39.0814 15.5065 37.8376 15.4559C38.1185 13.697 38.8145 12.1183 39.9255 10.7198C41.8801 8.48218 44.2651 7.82866 47.0805 8.75917C47.7202 9.01552 48.2549 9.41447 48.6847 9.95591C48.7016 7.98678 48.7187 6.0177 48.7356 4.04857C49.8713 3.5442 51.0003 3.03494 52.1222 2.52081Z" fill="white"/>
<path opacity="0.963" fill-rule="evenodd" clip-rule="evenodd" d="M69.0803 2.52081C69.1989 2.52081 69.3181 2.52081 69.4368 2.52081C69.4368 6.84946 69.4368 11.1781 69.4368 15.5068C68.1799 15.5237 66.9241 15.5068 65.6683 15.4559C65.2813 14.2793 64.5347 13.4051 63.4276 12.8332C62.1509 12.4458 60.9455 12.5986 59.8119 13.2915C59.1167 13.8759 58.6925 14.6143 58.5387 15.5068C57.2656 15.5068 55.9925 15.5068 54.7193 15.5068C55.1262 13.225 56.1783 11.2983 57.8767 9.72675C59.1244 8.72968 60.5416 8.27986 62.129 8.37723C62.9158 8.42769 63.6715 8.60593 64.3952 8.91194C64.8733 9.18628 65.2889 9.5343 65.6428 9.95591C65.6596 7.98678 65.6769 6.0177 65.6938 4.04857C66.8248 3.53341 67.9538 3.02415 69.0803 2.52081Z" fill="white"/>
<path fill-rule="evenodd" clip-rule="evenodd" d="M24.8261 4.35414C24.8261 4.37112 24.8261 4.3881 24.8261 4.40507C24.1981 4.40507 23.57 4.40507 22.9419 4.40507C23.5685 4.30696 24.1966 4.28999 24.8261 4.35414Z" fill="#656464"/>
<path opacity="0.995" fill-rule="evenodd" clip-rule="evenodd" d="M22.9419 4.40506C23.5699 4.40506 24.1981 4.40506 24.8261 4.40506C25.7556 4.44362 26.6722 4.56244 27.5761 4.76154C27.593 4.76154 27.6101 4.76154 27.627 4.76154C27.6327 4.79298 27.6496 4.81844 27.6779 4.83793C27.8824 4.88057 28.0861 4.92301 28.289 4.96524C28.306 4.96524 28.323 4.96524 28.34 4.96524C28.4716 5.06569 28.6243 5.11659 28.7983 5.11802C29.1104 5.30751 29.4499 5.44333 29.8168 5.52542C29.8887 5.62926 29.9905 5.68018 30.1224 5.67819C30.1942 5.78203 30.2961 5.83296 30.4279 5.83097C30.4784 5.82221 30.5123 5.83922 30.5298 5.8819C30.6233 5.98823 30.7421 6.05611 30.8862 6.0856C30.9368 6.07684 30.9707 6.09385 30.9881 6.13652C31.0471 6.22564 31.132 6.27657 31.2427 6.2893C31.3017 6.37842 31.3866 6.42934 31.4973 6.44208C31.5214 6.51368 31.5724 6.54764 31.6501 6.54393C31.6742 6.61553 31.7251 6.64949 31.8029 6.64578C31.827 6.71738 31.8779 6.75135 31.9557 6.74763C31.9945 6.83736 32.0624 6.88828 32.1594 6.9004C32.1835 6.97201 32.2344 7.00597 32.3122 7.00225C32.351 7.09199 32.4189 7.14291 32.5159 7.15503C32.5668 7.17199 32.6007 7.20596 32.6177 7.25688C32.6418 7.32848 32.6927 7.36245 32.7705 7.35873C32.8044 7.35873 32.8214 7.37569 32.8214 7.40966C32.8767 7.51594 32.9615 7.58382 33.076 7.61336C33.1791 7.76715 33.3149 7.88601 33.4834 7.96984C33.5174 8.10566 33.6022 8.1905 33.7381 8.22446C33.789 8.24142 33.823 8.27539 33.8399 8.32632C34.0064 8.57789 34.2101 8.79855 34.451 8.98835C34.4978 9.12019 34.5827 9.22204 34.7056 9.2939C34.7524 9.42574 34.8373 9.52759 34.9603 9.59945C34.9724 9.69641 35.0233 9.76435 35.113 9.80315C35.1252 9.90011 35.1761 9.96805 35.2658 10.0069C35.2621 10.0846 35.2961 10.1355 35.3677 10.1596C35.364 10.2374 35.3979 10.2883 35.4695 10.3124C35.4816 10.4094 35.5326 10.4773 35.6223 10.5161C35.665 10.5335 35.682 10.5674 35.6732 10.618C35.6695 10.6957 35.7035 10.7466 35.7751 10.7707C35.7714 10.8485 35.8053 10.8994 35.8769 10.9235C35.9196 10.9409 35.9366 10.9748 35.9279 11.0254C35.9241 11.1031 35.9581 11.154 36.0297 11.1781C36.0724 11.1956 36.0894 11.2295 36.0806 11.28C36.1101 11.4242 36.178 11.543 36.2843 11.6365C36.3441 11.6881 36.378 11.756 36.3862 11.8402C36.3957 11.9453 36.4212 12.0471 36.4626 12.1457C36.5348 12.2727 36.6112 12.3915 36.6917 12.5022C36.7646 12.5674 36.7986 12.6523 36.7936 12.7568C36.8064 12.9517 36.8743 13.1215 36.9973 13.2661C37.0426 13.5546 37.1275 13.8263 37.2519 14.0809C37.2396 14.203 37.2736 14.3049 37.3538 14.3864C37.4127 14.5277 37.4467 14.6804 37.4556 14.8448C37.469 15.1131 37.5199 15.3678 37.6084 15.6086C37.6084 15.6765 37.6084 15.7445 37.6084 15.8123C38.0158 15.8123 38.4232 15.8123 38.8306 15.8123C49.7286 15.8123 60.6267 15.8123 71.5247 15.8123C71.5247 17.408 71.5247 19.0037 71.5247 20.5993C60.2157 20.5824 48.9103 20.5994 37.6084 20.6503C37.5733 20.5854 37.5308 20.5854 37.4811 20.6503C37.439 20.818 37.4136 20.9877 37.4047 21.1595C37.3223 21.332 37.2714 21.5187 37.2519 21.7197C37.2656 21.8011 37.2486 21.869 37.201 21.9234C37.0602 22.1928 36.9583 22.4814 36.8954 22.7891C36.8954 22.8061 36.8954 22.8231 36.8954 22.8401C36.8138 22.8801 36.7798 22.948 36.7936 23.0438C36.6289 23.3333 36.4931 23.6388 36.3862 23.9604C36.3949 24.0109 36.3779 24.0448 36.3353 24.0623C36.2118 24.19 36.127 24.3428 36.0806 24.5206C36.0894 24.5711 36.0724 24.605 36.0297 24.6224C35.9581 24.6465 35.9241 24.6975 35.9279 24.7752C35.9366 24.8257 35.9196 24.8597 35.8769 24.8771C35.8053 24.9012 35.7714 24.9521 35.7751 25.0298C35.686 25.0889 35.635 25.1738 35.6223 25.2845C35.5507 25.3086 35.5167 25.3595 35.5205 25.4372C35.4454 25.4849 35.3945 25.5528 35.3677 25.6409C35.2786 25.7 35.2276 25.7849 35.2149 25.8956C35.1979 25.9465 35.164 25.9805 35.113 25.9974C35.0414 26.0215 35.0075 26.0724 35.0112 26.1502C35.0112 26.1842 34.9942 26.2011 34.9603 26.2011C34.8887 26.2252 34.8547 26.2761 34.8584 26.3539C34.8415 26.4048 34.8075 26.4388 34.7566 26.4558C34.6668 26.4946 34.6159 26.5625 34.6038 26.6595C34.6038 26.6934 34.5868 26.7104 34.5529 26.7104C34.4299 26.7822 34.345 26.8841 34.2982 27.0159C33.9757 27.3724 33.6362 27.7119 33.2797 28.0344C33.202 28.0307 33.151 28.0647 33.127 28.1363C33.093 28.2042 33.0421 28.2551 32.9742 28.2891C32.8772 28.3012 32.8093 28.3521 32.7705 28.4418C32.7705 28.4758 32.7535 28.4928 32.7196 28.4928C32.6226 28.5049 32.5547 28.5558 32.5159 28.6455C32.5159 28.6795 32.4989 28.6965 32.4649 28.6965C32.3872 28.6928 32.3362 28.7267 32.3122 28.7983C32.3122 28.8323 32.2952 28.8492 32.2612 28.8492C32.1414 28.892 32.0395 28.96 31.9557 29.0529C31.9557 29.0869 31.9387 29.1039 31.9047 29.1039C31.827 29.1002 31.7761 29.1341 31.752 29.2057C31.7117 29.2516 31.6608 29.2856 31.5992 29.3076C31.4885 29.3203 31.4036 29.3712 31.3446 29.4604C31.2668 29.4566 31.2159 29.4906 31.1918 29.5622C31.1402 29.622 31.0723 29.6559 30.9881 29.6641C30.7426 29.7442 30.522 29.863 30.3261 30.0205C30.208 30.0456 30.1061 30.0965 30.0205 30.1733C29.7287 30.2533 29.4571 30.3721 29.2057 30.5298C29.0938 30.5104 29.0089 30.5444 28.9511 30.6316C28.8347 30.6365 28.7328 30.6704 28.6455 30.7335C28.5336 30.7141 28.4487 30.7481 28.3909 30.8353C28.3739 30.8353 28.3569 30.8353 28.34 30.8353C27.5735 31.0191 26.8096 31.1888 26.0483 31.3446C25.6825 31.3582 25.3261 31.3922 24.9789 31.4464C24.211 31.4625 23.4472 31.4456 22.6873 31.3955C22.2221 31.2828 21.7467 31.1979 21.2613 31.1409C20.7955 30.9903 20.3202 30.8545 19.8354 30.7335C19.7481 30.6704 19.6463 30.6365 19.5299 30.6316C19.433 30.6166 19.3481 30.5826 19.2753 30.5298C19.1899 30.4109 19.0711 30.36 18.9188 30.377C18.8536 30.3041 18.7687 30.2702 18.6641 30.2752C18.6078 30.1494 18.5059 30.0985 18.3586 30.1224C18.307 30.0626 18.2391 30.0287 18.1549 30.0205C18.0029 29.9785 17.8671 29.9106 17.7475 29.8168C17.6885 29.7277 17.6036 29.6768 17.4929 29.6641C17.4423 29.6728 17.4084 29.6558 17.391 29.6131C17.3669 29.5415 17.316 29.5076 17.2382 29.5113C17.1877 29.52 17.1538 29.503 17.1364 29.4604C17.1123 29.3888 17.0614 29.3548 16.9836 29.3585C16.9595 29.2869 16.9086 29.2529 16.8308 29.2567C16.8067 29.1851 16.7558 29.1511 16.6781 29.1548C16.654 29.0832 16.603 29.0492 16.5253 29.0529C16.4865 28.9632 16.4185 28.9123 16.3216 28.9002C16.2975 28.8286 16.2466 28.7946 16.1688 28.7983C16.1136 28.692 16.0287 28.6242 15.9142 28.5946C15.8589 28.4883 15.7741 28.4205 15.6596 28.3909C15.5877 28.268 15.4858 28.1831 15.354 28.1363C15.1303 27.8616 14.8757 27.6239 14.5901 27.4233C14.5052 27.3724 14.4373 27.3045 14.3864 27.2196C14.3224 27.0706 14.2206 26.9517 14.0809 26.8632C14.0299 26.8462 13.996 26.8122 13.979 26.7613C13.9123 26.6099 13.8104 26.491 13.6735 26.4048C13.6772 26.3271 13.6432 26.2761 13.5716 26.2521C13.5207 26.2351 13.4867 26.2011 13.4698 26.1502C13.4735 26.0724 13.4395 26.0215 13.3679 25.9974C13.3558 25.9005 13.3049 25.8325 13.2151 25.7937C13.2188 25.716 13.1849 25.665 13.1133 25.6409C13.0705 25.5211 13.0026 25.4193 12.9096 25.3354C12.9133 25.2576 12.8793 25.2067 12.8077 25.1826C12.8114 25.1049 12.7775 25.0539 12.7059 25.0298C12.6764 24.8857 12.6085 24.7669 12.5022 24.6734C12.4727 24.5292 12.4048 24.4104 12.2985 24.3169C12.2903 24.2327 12.2564 24.1648 12.1966 24.1132C12.1234 23.8927 12.0216 23.689 11.8911 23.5021C11.7843 23.1471 11.6485 22.8077 11.4837 22.4836C11.4959 22.3615 11.462 22.2596 11.3818 22.178C10.9643 20.7575 10.7436 19.3061 10.7198 17.8239C10.7332 17.3228 10.7501 16.8221 10.7707 16.3216C10.7707 16.3046 10.7707 16.2876 10.7707 16.2707C10.9003 15.6134 11.0361 14.9514 11.1781 14.2846C11.2506 14.182 11.2846 14.0632 11.28 13.9281C11.404 13.7469 11.4719 13.5432 11.4837 13.317C11.5934 13.2092 11.6443 13.0734 11.6364 12.9096C11.7093 12.8444 11.7433 12.7595 11.7383 12.655C11.7295 12.6045 11.7465 12.5705 11.7892 12.5531C11.8621 12.4879 11.8961 12.403 11.8911 12.2985C11.8992 12.2143 11.9331 12.1464 11.9929 12.0948C12.0697 12.0092 12.1206 11.9073 12.1457 11.7892C12.1369 11.7387 12.1539 11.7048 12.1966 11.6874C12.2564 11.6358 12.2903 11.5679 12.2985 11.4837C12.4033 11.3941 12.4712 11.2752 12.5022 11.1272C12.6124 11.009 12.6973 10.8731 12.7568 10.7198C12.748 10.6693 12.7651 10.6354 12.8077 10.618C12.8793 10.5939 12.9133 10.5429 12.9096 10.4652C12.9812 10.4411 13.0151 10.3902 13.0114 10.3124C13.1012 10.2736 13.1521 10.2057 13.1642 10.1087C13.2358 10.0846 13.2698 10.0337 13.2661 9.95593C13.3926 9.8388 13.4944 9.70298 13.5716 9.54852C13.6945 9.47667 13.7794 9.37482 13.8262 9.24297C14.2662 8.78602 14.7076 8.32769 15.1503 7.86799C15.2182 7.83402 15.2691 7.78309 15.3031 7.71521C15.4349 7.66841 15.5368 7.58352 15.6086 7.46058C15.7232 7.43105 15.808 7.36316 15.8633 7.25688C16.0441 7.17484 16.1969 7.05603 16.3216 6.9004C16.3993 6.90412 16.4503 6.87015 16.4744 6.79855C16.4984 6.72695 16.5494 6.69298 16.6271 6.6967C16.747 6.65393 16.8488 6.58599 16.9327 6.493C16.9568 6.4214 17.0077 6.38743 17.0855 6.39115C17.1632 6.39487 17.2141 6.3609 17.2382 6.2893C17.3824 6.25981 17.5012 6.19193 17.5947 6.0856C17.6789 6.07745 17.7468 6.04353 17.7984 5.98375C17.8158 5.94107 17.8497 5.92406 17.9003 5.93282C17.978 5.93654 18.029 5.90257 18.053 5.83097C18.1914 5.83678 18.2932 5.78585 18.3586 5.67819C18.4631 5.68319 18.548 5.64922 18.6132 5.57634C18.7313 5.55129 18.8332 5.50036 18.9188 5.42357C18.9916 5.37076 19.0765 5.33679 19.1734 5.32172C19.5315 5.24207 19.871 5.12321 20.1919 4.96524C20.4548 4.97135 20.6925 4.90344 20.9049 4.76154C21.1401 4.74931 21.3608 4.69838 21.5669 4.60876C22.0345 4.55723 22.4929 4.48933 22.9419 4.40506ZM23.2474 8.07169C23.9264 8.07169 24.6055 8.07169 25.2844 8.07169C25.5107 8.13794 25.7483 8.17191 25.9974 8.17354C26.0031 8.20496 26.02 8.23042 26.0483 8.24993C26.5197 8.35728 26.9781 8.50155 27.4233 8.68279C27.644 8.84418 27.8816 8.97999 28.1363 9.0902C28.1604 9.1618 28.2113 9.19576 28.289 9.19205C28.3131 9.26365 28.3641 9.29762 28.4418 9.2939C28.5318 9.4318 28.6506 9.53365 28.7983 9.59945C29.0688 9.88697 29.3404 10.1756 29.6131 10.4652C29.817 10.7871 30.0376 11.0926 30.2751 11.3818C30.481 11.8272 30.6847 12.2686 30.8862 12.7059C30.9183 12.8534 30.9692 12.9892 31.039 13.1133C31.092 13.3596 31.1599 13.5973 31.2427 13.8263C31.3061 14.1686 31.374 14.508 31.4464 14.8448C31.4464 14.8617 31.4464 14.8787 31.4464 14.8957C31.5124 15.3501 31.5548 15.8085 31.5737 16.2707C31.5992 17.5097 31.6077 18.7489 31.5992 19.9882C27.8137 19.9797 24.0283 19.9882 20.2428 20.0137C20.1756 20.214 20.1756 20.4092 20.2428 20.5993C20.223 20.7548 20.2569 20.8906 20.3447 21.0067C20.331 21.0882 20.348 21.1561 20.3956 21.2104C20.6123 21.8826 21.0027 22.4257 21.5669 22.8401C21.6584 22.9623 21.7772 23.0472 21.9234 23.0947C21.9234 23.1286 21.9403 23.1456 21.9743 23.1456C22.1128 23.2488 22.2656 23.3337 22.4326 23.4002C22.4727 23.4819 22.5406 23.5159 22.6363 23.5021C22.6724 23.5481 22.7234 23.5651 22.7891 23.553C23.1167 23.7239 23.4731 23.8088 23.8585 23.8076C24.004 23.8843 24.1653 23.9182 24.3423 23.9095C24.5509 23.913 24.7461 23.8791 24.928 23.8076C25.3887 23.8211 25.8131 23.7192 26.2011 23.5021C26.2789 23.5058 26.3298 23.4718 26.3539 23.4002C26.7295 23.2621 27.0351 23.0245 27.2705 22.6873C27.3095 22.7439 27.3604 22.7779 27.4233 22.7891C27.5287 22.9456 27.6645 23.0644 27.8307 23.1456C28.0361 23.402 28.2738 23.6226 28.5437 23.8076C28.5606 23.8586 28.5946 23.8925 28.6455 23.9095C28.8353 24.1504 29.056 24.3541 29.3076 24.5206C29.3415 24.5885 29.3924 24.6394 29.4603 24.6734C29.5375 24.7592 29.6055 24.8526 29.664 24.9535C29.6397 25.0198 29.6057 25.0792 29.5622 25.1317C29.4242 25.2696 29.3054 25.4224 29.2057 25.59C29.0505 25.7113 28.9147 25.8471 28.7983 25.9974C28.4584 26.2352 28.1189 26.4729 27.7798 26.7104C27.5797 26.7935 27.393 26.8954 27.2196 27.0159C27.1032 27.0208 27.0013 27.0547 26.9141 27.1178C26.4694 27.2371 26.0281 27.3559 25.59 27.4743C25.4431 27.4587 25.3073 27.4756 25.1826 27.5252C24.35 27.5355 23.5182 27.5185 22.6873 27.4743C22.2918 27.3646 21.8844 27.2797 21.465 27.2196C21.3531 27.123 21.2173 27.0721 21.0576 27.0669C20.9505 26.995 20.8317 26.944 20.7012 26.9141C20.5721 26.8368 20.4362 26.7689 20.2938 26.7104C20.048 26.545 19.7934 26.3922 19.5299 26.2521C19.458 26.1291 19.3562 26.0442 19.2243 25.9974C19.2243 25.9635 19.2074 25.9465 19.1734 25.9465C18.9644 25.716 18.7436 25.4953 18.5114 25.2845C18.4618 25.1503 18.3769 25.0484 18.2567 24.9789C18.2379 24.838 18.17 24.7362 18.053 24.6734C18.0342 24.5325 17.9663 24.4306 17.8493 24.3678C17.8631 24.2721 17.8292 24.2042 17.7475 24.1641C17.7065 24.0143 17.6386 23.8785 17.5438 23.7567C17.4953 23.5939 17.4274 23.4411 17.3401 23.2984C17.3401 23.2814 17.3401 23.2644 17.3401 23.2475C17.3012 23.1192 17.2503 23.0004 17.1873 22.891C17.1668 22.7389 17.1159 22.6031 17.0345 22.4836C17.0292 22.2948 16.9783 22.1251 16.8818 21.9743C16.8673 21.6139 16.7994 21.2744 16.6781 20.9558C16.5831 20.2804 16.5322 19.6014 16.5253 18.9188C16.4853 18.0712 16.4853 17.2225 16.5253 16.3725C16.5644 16.3337 16.5899 16.2827 16.6017 16.2198C16.627 16.0508 16.6355 15.8811 16.6271 15.7105C16.6271 15.6935 16.6271 15.6765 16.6271 15.6596C16.6993 15.2917 16.7672 14.9183 16.8308 14.5392C16.9078 14.3842 16.9417 14.2144 16.9327 14.03C17.055 13.8167 17.1398 13.579 17.1873 13.317C17.3625 12.9415 17.5153 12.5511 17.6456 12.1457C17.7245 12.1294 17.7584 12.0784 17.7475 11.9929C17.8524 11.8534 17.9372 11.7006 18.0021 11.5346C18.1407 11.3618 18.2595 11.175 18.3586 10.9744C18.5406 10.7634 18.7103 10.5427 18.8678 10.3124C19.0885 10.1257 19.2922 9.92196 19.479 9.7013C19.7013 9.57317 19.905 9.4204 20.0901 9.24297C20.2242 9.17621 20.3431 9.09132 20.4465 8.98835C20.6678 8.91995 20.8715 8.8181 21.0576 8.68279C21.3111 8.60987 21.5488 8.50802 21.7706 8.37724C21.9197 8.37393 22.0555 8.33996 22.178 8.27539C22.4065 8.23623 22.6272 8.1853 22.84 8.12261C22.9869 8.1382 23.1228 8.12124 23.2474 8.07169Z" fill="#080505"/>
<path opacity="0.412" fill-rule="evenodd" clip-rule="evenodd" d="M22.9418 4.40506C22.4928 4.48933 22.0345 4.55723 21.5669 4.60876C22.0092 4.47904 22.4675 4.41115 22.9418 4.40506Z" fill="#8B8A8A"/>
<path opacity="0.325" fill-rule="evenodd" clip-rule="evenodd" d="M24.8261 4.40505C24.8261 4.38807 24.8261 4.3711 24.8261 4.35412C25.7708 4.34898 26.6875 4.48478 27.5761 4.76152C26.6722 4.56243 25.7556 4.4436 24.8261 4.40505Z" fill="#858484"/>
<path opacity="0.308" fill-rule="evenodd" clip-rule="evenodd" d="M21.5669 4.60877C21.3608 4.69839 21.1402 4.74932 20.9049 4.76155C21.1093 4.66616 21.3301 4.61523 21.5669 4.60877Z" fill="#858383"/>
<path opacity="0.337" fill-rule="evenodd" clip-rule="evenodd" d="M27.627 4.76153C27.8652 4.79106 28.0859 4.85896 28.289 4.96523C28.0861 4.923 27.8824 4.88056 27.6779 4.83792C27.6496 4.81843 27.6327 4.79297 27.627 4.76153Z" fill="#7D7B7B"/>
<path fill-rule="evenodd" clip-rule="evenodd" d="M20.9048 4.76153C20.6924 4.90343 20.4548 4.97134 20.1919 4.96523C20.4105 4.85096 20.6482 4.78306 20.9048 4.76153Z" fill="#535252"/>
<path fill-rule="evenodd" clip-rule="evenodd" d="M24.928 5.06708C24.265 5.0589 23.603 5.07588 22.9419 5.11801C23.0158 5.07717 23.1007 5.05171 23.1965 5.04162C23.7826 4.99956 24.3597 5.00805 24.928 5.06708Z" fill="#530A0D"/>
<path opacity="0.38" fill-rule="evenodd" clip-rule="evenodd" d="M28.34 4.96524C28.5073 4.98704 28.66 5.03797 28.7983 5.11802C28.6243 5.11659 28.4716 5.06569 28.34 4.96524Z" fill="#8F8D8D"/>
<path opacity="0.835" fill-rule="evenodd" clip-rule="evenodd" d="M20.1919 4.96524C19.871 5.12321 19.5315 5.24207 19.1734 5.32172C19.4891 5.14745 19.8286 5.02864 20.1919 4.96524Z" fill="#747272"/>
<path fill-rule="evenodd" clip-rule="evenodd" d="M24.928 5.06708C25.184 5.06723 25.4386 5.08421 25.6919 5.11801C25.7132 5.15478 25.7471 5.18024 25.7937 5.1944C26.0987 5.22999 26.4043 5.25546 26.7104 5.27078C27.074 5.32319 27.4305 5.40803 27.7798 5.52541C27.8994 5.60674 28.0352 5.65766 28.1872 5.67819C31.6273 6.84484 34.1821 9.05159 35.8515 12.2985C36.3648 13.3504 36.7128 14.4538 36.8955 15.6086C36.9235 15.777 36.9405 15.9468 36.9464 16.1179C48.3282 16.1888 59.7187 16.2227 71.1173 16.2197C71.1173 17.5608 71.1173 18.9018 71.1173 20.2429C59.71 20.2343 48.3027 20.2429 36.8955 20.2683C48.3197 20.2938 59.7442 20.3023 71.1682 20.2938C71.1682 20.3107 71.1682 20.3277 71.1682 20.3447C59.7268 20.3447 48.2858 20.3447 36.8445 20.3447C36.8187 20.5667 36.7848 20.7874 36.7427 21.0067C36.7113 21.0124 36.6858 21.0293 36.6663 21.0577C36.6309 21.2093 36.6054 21.3621 36.5899 21.516C36.5729 21.5839 36.5559 21.6518 36.539 21.7197C36.4503 21.8162 36.3994 21.935 36.3862 22.0762C34.851 26.2339 31.9652 28.9754 27.7289 30.3006C27.3895 30.3828 27.05 30.4591 26.7104 30.5298C26.1379 30.5546 25.5777 30.6225 25.0298 30.7335C23.9034 30.7489 22.783 30.681 21.6688 30.5298C21.6144 30.4822 21.5465 30.4652 21.4651 30.4789C21.3746 30.4228 21.2727 30.3804 21.1595 30.3515C21.2104 30.3346 21.2614 30.3176 21.3123 30.3006C21.2248 30.283 21.1399 30.2575 21.0577 30.2242C21.0237 30.2582 20.9898 30.2921 20.9558 30.3261C20.8274 30.2606 20.6917 30.2267 20.5484 30.2242C20.1819 30.136 19.8254 30.0172 19.479 29.8678C19.4009 29.7789 19.2991 29.728 19.1734 29.715C16.8123 28.7039 14.9196 27.1252 13.4952 24.9789C12.8995 24.0698 12.4326 23.1022 12.0948 22.0762C12.0526 21.9073 12.0102 21.7376 11.9675 21.5669C11.948 21.5386 11.9225 21.5216 11.8911 21.516C11.8957 21.3809 11.8618 21.2621 11.7892 21.1595C11.4291 19.6554 11.3103 18.1277 11.4328 16.5762C11.5161 16.3873 11.55 16.1836 11.5346 15.9651C11.5346 15.9142 11.5346 15.8633 11.5346 15.8123C11.5714 15.7911 11.5968 15.7571 11.611 15.7105C11.659 15.4392 11.7015 15.1676 11.7383 14.8957C12.8611 10.7083 15.4073 7.72916 19.3771 5.95828C20.0811 5.65919 20.811 5.44699 21.5669 5.32171C21.8661 5.29375 22.1546 5.24283 22.4326 5.16893C22.5918 5.11908 22.7615 5.10207 22.9419 5.11801C23.603 5.07588 24.265 5.0589 24.928 5.06708ZM23.2475 8.07168C23.9264 8.07168 24.6055 8.07168 25.2845 8.07168C25.5107 8.13793 25.7484 8.1719 25.9974 8.17353C26.0031 8.20495 26.02 8.23042 26.0484 8.24992C26.5198 8.35727 26.9781 8.50154 27.4233 8.68279C27.644 8.84417 27.8817 8.97999 28.1363 9.09019C28.1604 9.16179 28.2113 9.19576 28.2891 9.19204C28.3132 9.26364 28.3641 9.29761 28.4418 9.29389C28.5318 9.4318 28.6506 9.53365 28.7983 9.59944C29.0688 9.88697 29.3404 10.1756 29.6131 10.4652C29.817 10.7871 30.0376 11.0926 30.2752 11.3818C30.4811 11.8272 30.6848 12.2685 30.8863 12.7059C30.9183 12.8534 30.9692 12.9892 31.039 13.1133C31.092 13.3596 31.1599 13.5973 31.2427 13.8263C31.3061 14.1686 31.374 14.508 31.4464 14.8448C31.4464 14.8617 31.4464 14.8787 31.4464 14.8957C31.5124 15.3501 31.5549 15.8085 31.5738 16.2707C31.5992 17.5097 31.6077 18.7489 31.5992 19.9882C27.8137 19.9797 24.0283 19.9882 20.2429 20.0137C20.1756 20.214 20.1756 20.4092 20.2429 20.5993C20.223 20.7548 20.257 20.8906 20.3447 21.0067C20.3311 21.0882 20.3481 21.156 20.3956 21.2104C20.6123 21.8825 21.0027 22.4257 21.5669 22.84C21.6584 22.9623 21.7772 23.0472 21.9234 23.0947C21.9234 23.1286 21.9404 23.1456 21.9743 23.1456C22.1128 23.2488 22.2656 23.3337 22.4326 23.4002C22.4727 23.4819 22.5406 23.5159 22.6364 23.5021C22.6725 23.5481 22.7234 23.5651 22.7891 23.553C23.1167 23.7239 23.4732 23.8088 23.8586 23.8076C24.004 23.8843 24.1653 23.9182 24.3424 23.9095C24.5509 23.913 24.7461 23.8791 24.928 23.8076C25.3887 23.8211 25.8131 23.7192 26.2011 23.5021C26.2789 23.5058 26.3298 23.4718 26.3539 23.4002C26.7295 23.2621 27.0351 23.0245 27.2706 22.6873C27.3095 22.7439 27.3604 22.7779 27.4233 22.7891C27.5287 22.9456 27.6645 23.0644 27.8307 23.1456C28.0361 23.402 28.2738 23.6226 28.5437 23.8076C28.5607 23.8586 28.5946 23.8925 28.6455 23.9095C28.8353 24.1504 29.056 24.3541 29.3076 24.5206C29.3415 24.5885 29.3925 24.6394 29.4604 24.6734C29.5376 24.7592 29.6055 24.8526 29.6641 24.9535C29.6397 25.0198 29.6057 25.0792 29.5622 25.1317C29.4242 25.2696 29.3054 25.4224 29.2057 25.59C29.0505 25.7113 28.9147 25.8471 28.7983 25.9974C28.4584 26.2352 28.1189 26.4729 27.7798 26.7104C27.5797 26.7935 27.393 26.8954 27.2196 27.0159C27.1032 27.0208 27.0014 27.0547 26.9141 27.1178C26.4694 27.237 26.0281 27.3559 25.59 27.4743C25.4431 27.4587 25.3073 27.4756 25.1826 27.5252C24.35 27.5355 23.5182 27.5185 22.6873 27.4743C22.2918 27.3646 21.8844 27.2797 21.4651 27.2196C21.3531 27.123 21.2174 27.0721 21.0577 27.0669C20.9505 26.9949 20.8317 26.944 20.7012 26.9141C20.5721 26.8368 20.4363 26.7689 20.2938 26.7104C20.048 26.545 19.7934 26.3922 19.5299 26.252C19.458 26.1291 19.3562 26.0442 19.2243 25.9974C19.2243 25.9635 19.2074 25.9465 19.1734 25.9465C18.9644 25.716 18.7437 25.4953 18.5114 25.2845C18.4618 25.1503 18.377 25.0484 18.2568 24.9789C18.2379 24.838 18.17 24.7362 18.0531 24.6734C18.0342 24.5325 17.9663 24.4306 17.8494 24.3678C17.8632 24.2721 17.8292 24.2042 17.7475 24.1641C17.7066 24.0143 17.6386 23.8785 17.5438 23.7567C17.4953 23.5939 17.4274 23.4411 17.3401 23.2984C17.3401 23.2814 17.3401 23.2644 17.3401 23.2474C17.3012 23.1192 17.2503 23.0004 17.1873 22.891C17.1668 22.7389 17.1159 22.6031 17.0346 22.4836C17.0293 22.2948 16.9783 22.1251 16.8818 21.9743C16.8673 21.6139 16.7994 21.2743 16.6781 20.9558C16.5832 20.2804 16.5322 19.6014 16.5253 18.9188C16.4853 18.0712 16.4853 17.2225 16.5253 16.3725C16.5644 16.3337 16.5899 16.2827 16.6017 16.2197C16.6271 16.0508 16.6356 15.8811 16.6272 15.7105C16.6272 15.6935 16.6272 15.6765 16.6272 15.6596C16.6993 15.2917 16.7672 14.9182 16.8309 14.5392C16.9078 14.3842 16.9418 14.2144 16.9327 14.03C17.055 13.8167 17.1399 13.579 17.1873 13.317C17.3626 12.9415 17.5153 12.5511 17.6457 12.1457C17.7245 12.1294 17.7585 12.0784 17.7475 11.9929C17.8524 11.8534 17.9373 11.7006 18.0021 11.5346C18.1407 11.3618 18.2595 11.175 18.3586 10.9744C18.5406 10.7634 18.7103 10.5427 18.8679 10.3124C19.0885 10.1257 19.2922 9.92195 19.479 9.70129C19.7013 9.57317 19.905 9.42039 20.0901 9.24297C20.2243 9.1762 20.3431 9.09131 20.4466 8.98834C20.6678 8.91995 20.8715 8.81809 21.0577 8.68279C21.3112 8.60986 21.5488 8.50801 21.7706 8.37723C21.9197 8.37392 22.0555 8.33996 22.178 8.27538C22.4065 8.23622 22.6272 8.1853 22.8401 8.12261C22.987 8.13819 23.1228 8.12123 23.2475 8.07168Z" fill="#EA1E25"/>
<path fill-rule="evenodd" clip-rule="evenodd" d="M25.6919 5.11803C26.0422 5.14135 26.3818 5.19228 26.7104 5.2708C26.4043 5.25547 26.0987 5.23001 25.7937 5.19441C25.7471 5.18026 25.7132 5.15479 25.6919 5.11803Z" fill="#8B1216"/>
<path opacity="0.349" fill-rule="evenodd" clip-rule="evenodd" d="M28.7983 5.11803C29.162 5.20506 29.5015 5.34083 29.8168 5.52543C29.4499 5.44334 29.1104 5.30752 28.7983 5.11803Z" fill="#878585"/>
<path fill-rule="evenodd" clip-rule="evenodd" d="M22.4326 5.16895C22.1546 5.24284 21.866 5.29376 21.5669 5.32172C21.5882 5.28495 21.6221 5.25949 21.6687 5.24533C21.9215 5.19889 22.1761 5.17343 22.4326 5.16895Z" fill="#750F13"/>
<path opacity="0.086" fill-rule="evenodd" clip-rule="evenodd" d="M18.9188 5.42357C18.8332 5.50037 18.7313 5.55129 18.6133 5.57635C18.6851 5.47251 18.787 5.42159 18.9188 5.42357Z" fill="#949393"/>
<path opacity="0.404" fill-rule="evenodd" clip-rule="evenodd" d="M18.6132 5.57635C18.5481 5.64923 18.4632 5.6832 18.3586 5.6782C18.4238 5.60533 18.5087 5.57136 18.6132 5.57635Z" fill="#8F8D8D"/>
<path opacity="0.427" fill-rule="evenodd" clip-rule="evenodd" d="M29.8168 5.52541C29.9349 5.55047 30.0368 5.60139 30.1224 5.67819C29.9905 5.68018 29.8887 5.62925 29.8168 5.52541Z" fill="#8B8A8A"/>
<path fill-rule="evenodd" clip-rule="evenodd" d="M27.7798 5.52541C27.9395 5.53066 28.0753 5.58158 28.1872 5.67819C28.0352 5.65767 27.8994 5.60674 27.7798 5.52541Z" fill="#851115"/>
<path opacity="0.451" fill-rule="evenodd" clip-rule="evenodd" d="M30.1223 5.67819C30.2404 5.70325 30.3423 5.75417 30.4279 5.83097C30.2961 5.83295 30.1942 5.78203 30.1223 5.67819Z" fill="#828181"/>
<path opacity="0.404" fill-rule="evenodd" clip-rule="evenodd" d="M18.3586 5.67819C18.2932 5.78585 18.1914 5.83677 18.053 5.83097C18.1386 5.75417 18.2405 5.70325 18.3586 5.67819Z" fill="#7F7D7D"/>
<path opacity="0.804" fill-rule="evenodd" clip-rule="evenodd" d="M18.053 5.83096C18.0289 5.90256 17.978 5.93653 17.9002 5.93281C17.9243 5.86121 17.9753 5.82725 18.053 5.83096Z" fill="#787676"/>
<path opacity="0.035" fill-rule="evenodd" clip-rule="evenodd" d="M30.5298 5.8819C30.6739 5.91139 30.7927 5.97927 30.8862 6.08561C30.7421 6.05612 30.6233 5.98824 30.5298 5.8819Z" fill="#939191"/>
<path opacity="0.557" fill-rule="evenodd" clip-rule="evenodd" d="M17.7984 5.98376C17.7468 6.04354 17.6789 6.07746 17.5947 6.08561C17.6348 6.00392 17.7027 5.96996 17.7984 5.98376Z" fill="#969595"/>
<path opacity="0.016" fill-rule="evenodd" clip-rule="evenodd" d="M30.9881 6.13653C31.0988 6.14926 31.1837 6.20018 31.2427 6.2893C31.132 6.27657 31.0471 6.22565 30.9881 6.13653Z" fill="#9D9B9B"/>
<path opacity="0.463" fill-rule="evenodd" clip-rule="evenodd" d="M17.5947 6.08559C17.5012 6.19192 17.3824 6.2598 17.2382 6.28929C17.3317 6.18296 17.4505 6.11507 17.5947 6.08559Z" fill="#939292"/>
<path opacity="0.62" fill-rule="evenodd" clip-rule="evenodd" d="M17.2383 6.2893C17.2142 6.3609 17.1632 6.39487 17.0855 6.39115C17.1096 6.31955 17.1605 6.28558 17.2383 6.2893Z" fill="#858484"/>
<path opacity="0.247" fill-rule="evenodd" clip-rule="evenodd" d="M31.2427 6.28929C31.3534 6.30202 31.4383 6.35295 31.4973 6.44207C31.3866 6.42934 31.3017 6.37841 31.2427 6.28929Z" fill="#939191"/>
<path opacity="0.137" fill-rule="evenodd" clip-rule="evenodd" d="M31.4973 6.44209C31.5751 6.43837 31.626 6.47234 31.6501 6.54394C31.5723 6.54765 31.5214 6.51369 31.4973 6.44209Z" fill="#979595"/>
<path opacity="0.247" fill-rule="evenodd" clip-rule="evenodd" d="M16.9327 6.493C16.8488 6.58599 16.7469 6.65392 16.6271 6.6967C16.6934 6.57845 16.7953 6.51057 16.9327 6.493Z" fill="#818080"/>
<path opacity="0.063" fill-rule="evenodd" clip-rule="evenodd" d="M31.6501 6.54392C31.7278 6.54021 31.7788 6.57417 31.8029 6.64577C31.7251 6.64949 31.6742 6.61552 31.6501 6.54392Z" fill="#A09E9E"/>
<path opacity="0.149" fill-rule="evenodd" clip-rule="evenodd" d="M31.8029 6.64577C31.8807 6.64205 31.9316 6.67602 31.9557 6.74762C31.8779 6.75134 31.827 6.71737 31.8029 6.64577Z" fill="#979595"/>
<path opacity="0.075" fill-rule="evenodd" clip-rule="evenodd" d="M31.9557 6.74763C32.0527 6.75975 32.1206 6.81067 32.1594 6.9004C32.0624 6.88828 31.9945 6.83736 31.9557 6.74763Z" fill="#8B8989"/>
<path opacity="0.729" fill-rule="evenodd" clip-rule="evenodd" d="M16.4744 6.79855C16.4503 6.87015 16.3994 6.90412 16.3216 6.9004C16.3457 6.8288 16.3966 6.79484 16.4744 6.79855Z" fill="#7D7C7C"/>
<path opacity="0.075" fill-rule="evenodd" clip-rule="evenodd" d="M32.1594 6.90039C32.2371 6.89667 32.2881 6.93064 32.3121 7.00224C32.2344 7.00596 32.1835 6.97199 32.1594 6.90039Z" fill="#9B9999"/>
<path opacity="0.043" fill-rule="evenodd" clip-rule="evenodd" d="M32.3121 7.00226C32.4091 7.01438 32.477 7.0653 32.5158 7.15503C32.4189 7.14291 32.3509 7.09199 32.3121 7.00226Z" fill="#999797"/>
<path opacity="0.475" fill-rule="evenodd" clip-rule="evenodd" d="M16.3216 6.90041C16.1969 7.05604 16.0441 7.17485 15.8633 7.25689C15.988 7.10126 16.1407 6.98245 16.3216 6.90041Z" fill="#7F7E7E"/>
<path opacity="0.153" fill-rule="evenodd" clip-rule="evenodd" d="M32.6177 7.25688C32.6955 7.25316 32.7464 7.28713 32.7705 7.35873C32.6927 7.36245 32.6418 7.32848 32.6177 7.25688Z" fill="#929090"/>
<path opacity="0.765" fill-rule="evenodd" clip-rule="evenodd" d="M15.8632 7.25688C15.808 7.36316 15.7231 7.43105 15.6086 7.46058C15.6639 7.3543 15.7487 7.28642 15.8632 7.25688Z" fill="#6A6969"/>
<path opacity="0.043" fill-rule="evenodd" clip-rule="evenodd" d="M32.8214 7.40967C32.9359 7.4392 33.0208 7.50709 33.076 7.61337C32.9615 7.58383 32.8767 7.51595 32.8214 7.40967Z" fill="#918F8F"/>
<path opacity="0.804" fill-rule="evenodd" clip-rule="evenodd" d="M15.6087 7.46059C15.5368 7.58352 15.4349 7.66841 15.3031 7.71521C15.375 7.59228 15.4768 7.50739 15.6087 7.46059Z" fill="#757373"/>
<path opacity="0.565" fill-rule="evenodd" clip-rule="evenodd" d="M33.076 7.61335C33.2433 7.6957 33.3791 7.81451 33.4835 7.96983C33.3149 7.886 33.1791 7.76714 33.076 7.61335Z" fill="#8B8989"/>
<path opacity="0.353" fill-rule="evenodd" clip-rule="evenodd" d="M15.3031 7.71521C15.2691 7.78309 15.2182 7.83402 15.1503 7.86799C15.1503 7.76614 15.2012 7.71521 15.3031 7.71521Z" fill="#8A8989"/>
<path opacity="0.141" fill-rule="evenodd" clip-rule="evenodd" d="M25.2844 8.07167C24.6054 8.07167 23.9264 8.07167 23.2474 8.07167C23.3213 8.03083 23.4062 8.00537 23.502 7.99529C24.0282 7.96132 24.5545 7.96132 25.0807 7.99529C25.1601 8.00598 25.2279 8.03144 25.2844 8.07167Z" fill="#F08487"/>
<path opacity="0.722" fill-rule="evenodd" clip-rule="evenodd" d="M33.4835 7.96984C33.5853 8.03772 33.6702 8.12262 33.7381 8.22447C33.6023 8.1905 33.5174 8.10566 33.4835 7.96984Z" fill="#6D6B6B"/>
<path fill-rule="evenodd" clip-rule="evenodd" d="M25.2845 8.0717C25.5058 8.06324 25.7264 8.07175 25.9465 8.09716C25.9748 8.11666 25.9918 8.14213 25.9974 8.17355C25.7483 8.17192 25.5107 8.13795 25.2845 8.0717Z" fill="#EF6969"/>
<path opacity="0.153" fill-rule="evenodd" clip-rule="evenodd" d="M22.8401 8.12262C22.6272 8.18531 22.4065 8.23624 22.178 8.2754C22.1837 8.24398 22.2007 8.21851 22.229 8.19901C22.4296 8.14732 22.6333 8.12186 22.8401 8.12262Z" fill="#EF8083"/>
<path opacity="0.694" fill-rule="evenodd" clip-rule="evenodd" d="M15.1503 7.86797C14.7075 8.32768 14.2661 8.78601 13.8262 9.24296C14.1976 8.71873 14.639 8.2604 15.1503 7.86797Z" fill="#777676"/>
<path opacity="0.906" fill-rule="evenodd" clip-rule="evenodd" d="M33.8399 8.32631C34.0808 8.51611 34.2845 8.73677 34.451 8.98834C34.2101 8.79854 34.0064 8.57788 33.8399 8.32631Z" fill="#797777"/>
<path opacity="0.967" fill-rule="evenodd" clip-rule="evenodd" d="M77.0247 8.37724C80.4774 8.24916 82.879 9.77693 84.2306 12.9605C84.6217 14.1032 84.8763 15.2745 84.9945 16.4744C85.02 17.7983 85.0286 19.1224 85.02 20.4466C81.2174 20.4466 77.4153 20.4466 73.6127 20.4466C73.6702 21.8716 74.3149 22.9495 75.5478 23.6803C76.853 24.3664 78.1944 24.4343 79.5709 23.884C79.9788 23.68 80.3267 23.3999 80.6149 23.0438C81.4312 23.7924 82.246 24.5393 83.0593 25.2845C83.0934 25.3354 83.0934 25.3863 83.0593 25.4373C81.8896 26.9454 80.3537 27.8026 78.4506 28.009C76.2842 28.2631 74.3322 27.7538 72.5942 26.4812C71.4784 25.4295 70.7058 24.1649 70.2771 22.6873C70.1227 22.0845 69.9954 21.4734 69.8951 20.854C70.4217 20.8624 70.9477 20.854 71.4738 20.8285C71.6179 20.82 71.6943 20.7436 71.703 20.5993C71.7371 19.0037 71.7371 17.408 71.703 15.8124C71.6943 15.6681 71.6179 15.5917 71.4738 15.5832C70.9987 15.5577 70.5235 15.5493 70.0479 15.5577C70.3234 13.6179 71.1127 11.9204 72.4159 10.4652C73.7094 9.2199 75.2453 8.52396 77.0247 8.37724ZM77.2284 12.1457C78.7057 12.0737 79.8006 12.6848 80.5131 13.979C80.9235 14.8513 81.1695 15.768 81.2515 16.729C78.7052 16.729 76.1589 16.729 73.6127 16.729C73.6651 15.5221 74.0471 14.4356 74.7585 13.4698C75.4063 12.6835 76.2297 12.2421 77.2284 12.1457Z" fill="white"/>
<path opacity="0.671" fill-rule="evenodd" clip-rule="evenodd" d="M10.3633 8.42816C9.94525 8.47171 9.52089 8.52263 9.09021 8.58094C9.24472 8.50364 9.41445 8.46122 9.59946 8.45363C9.85353 8.42822 10.1082 8.41971 10.3633 8.42816Z" fill="white"/>
<path opacity="0.494" fill-rule="evenodd" clip-rule="evenodd" d="M21.7706 8.37723C21.5487 8.508 21.3111 8.60985 21.0576 8.68278C21.272 8.53194 21.5096 8.43009 21.7706 8.37723Z" fill="#EC8789"/>
<path opacity="0.494" fill-rule="evenodd" clip-rule="evenodd" d="M25.9974 8.17355C26.5146 8.23466 26.99 8.40439 27.4233 8.6828C26.9781 8.50156 26.5198 8.35728 26.0484 8.24993C26.02 8.23043 26.0031 8.20497 25.9974 8.17355Z" fill="#ED8789"/>
<path fill-rule="evenodd" clip-rule="evenodd" d="M10.3633 8.42818C10.4198 8.43108 10.4707 8.44804 10.5161 8.4791C10.7729 8.57902 11.0445 8.6469 11.3309 8.6828C11.5447 8.71922 11.7144 8.82107 11.8402 8.98836C11.4683 10.1211 11.0779 11.2414 10.6689 12.3494C10.6196 12.4159 10.5517 12.4499 10.4652 12.4513C10.2553 12.3868 10.0516 12.302 9.85407 12.1967C9.79393 12.1169 9.70909 12.0744 9.59944 12.0693C9.29389 12.0354 8.98834 12.0354 8.68279 12.0693C8.51142 12.0951 8.35865 12.1545 8.22446 12.2476C8.06832 12.3693 7.89854 12.4711 7.7152 12.5531C7.59227 12.625 7.50738 12.7268 7.46058 12.8587C7.28825 13.1229 7.13547 13.3946 7.00225 13.6735C6.88013 13.8723 6.81225 14.0929 6.79855 14.3355C6.79855 14.3525 6.79855 14.3695 6.79855 14.3864C6.7187 14.5041 6.67622 14.64 6.67123 14.7939C6.66273 18.9783 6.63727 23.1542 6.59485 27.3215C5.42356 27.3215 4.25228 27.3215 3.08099 27.3215C3.08099 21.0916 3.08099 14.8617 3.08099 8.63188C4.25228 8.63188 5.42356 8.63188 6.59485 8.63188C6.57789 9.34565 6.5949 10.0586 6.64577 10.7707C6.70714 10.7159 6.7411 10.648 6.74762 10.567C7.0796 9.62589 7.72468 8.98932 8.68279 8.65734C8.81331 8.60239 8.94908 8.57693 9.09019 8.58095C9.52087 8.52264 9.94523 8.47172 10.3633 8.42818Z" fill="white"/>
<path opacity="0.635" fill-rule="evenodd" clip-rule="evenodd" d="M10.5161 8.4791C10.8053 8.49666 11.0769 8.56455 11.3309 8.6828C11.0444 8.64689 10.7728 8.57901 10.5161 8.4791Z" fill="white"/>
<path opacity="0.506" fill-rule="evenodd" clip-rule="evenodd" d="M6.74761 10.567C6.74109 10.648 6.70713 10.7159 6.64576 10.7707C6.59489 10.0586 6.57788 9.34564 6.59484 8.63187C5.42355 8.63187 4.25227 8.63187 3.08099 8.63187C3.08099 14.8617 3.08099 21.0916 3.08099 27.3215C4.25227 27.3215 5.42355 27.3215 6.59484 27.3215C6.59484 27.3384 6.59484 27.3555 6.59484 27.3724C5.40659 27.3724 4.21832 27.3724 3.03006 27.3724C3.03006 21.1086 3.03006 14.8448 3.03006 8.58094C4.25227 8.58094 5.47448 8.58094 6.69669 8.58094C6.70132 9.26222 6.69282 9.94121 6.67123 10.618C6.69073 10.5896 6.71619 10.5727 6.74761 10.567Z" fill="white"/>
<path fill-rule="evenodd" clip-rule="evenodd" d="M21.0576 8.68279C20.8715 8.8181 20.6678 8.91995 20.4465 8.98834C20.573 8.74197 20.7767 8.64012 21.0576 8.68279Z" fill="#F06561"/>
<path opacity="0.706" fill-rule="evenodd" clip-rule="evenodd" d="M27.4233 8.68281C27.5027 8.68378 27.5791 8.70073 27.6524 8.73373C27.785 8.83823 27.9293 8.92307 28.0853 8.98836C28.1038 9.02314 28.1208 9.05711 28.1362 9.09021C27.8816 8.98001 27.6439 8.84419 27.4233 8.68281Z" fill="#EF878A"/>
<path opacity="0.855" fill-rule="evenodd" clip-rule="evenodd" d="M34.451 8.98835C34.574 9.06021 34.6588 9.16206 34.7056 9.2939C34.5827 9.22205 34.4978 9.1202 34.451 8.98835Z" fill="#757373"/>
<path opacity="0.627" fill-rule="evenodd" clip-rule="evenodd" d="M28.1363 9.0902C28.214 9.08648 28.2649 9.12044 28.289 9.19205C28.2113 9.19576 28.1603 9.1618 28.1363 9.0902Z" fill="#ED8C8F"/>
<path fill-rule="evenodd" clip-rule="evenodd" d="M28.4419 9.2939C28.5486 9.34034 28.6504 9.39977 28.7474 9.47214C28.7857 9.50631 28.8027 9.54873 28.7983 9.59945C28.6506 9.53366 28.5318 9.43181 28.4419 9.2939Z" fill="#EF8588"/>
<path opacity="0.596" fill-rule="evenodd" clip-rule="evenodd" d="M13.8262 9.24298C13.7794 9.37483 13.6945 9.47668 13.5716 9.54853C13.6184 9.41669 13.7033 9.31484 13.8262 9.24298Z" fill="#848383"/>
<path opacity="0.388" fill-rule="evenodd" clip-rule="evenodd" d="M34.7056 9.2939C34.8286 9.36576 34.9135 9.46761 34.9603 9.59945C34.8373 9.5276 34.7524 9.42575 34.7056 9.2939Z" fill="#848282"/>
<path opacity="0.992" fill-rule="evenodd" clip-rule="evenodd" d="M20.09 9.24298C19.905 9.42041 19.7013 9.57318 19.4789 9.70131C19.5104 9.61326 19.5613 9.53687 19.6317 9.47215C19.7803 9.38185 19.9331 9.30547 20.09 9.24298Z" fill="#EE8587"/>
<path opacity="0.796" fill-rule="evenodd" clip-rule="evenodd" d="M34.9603 9.59944C35.05 9.63825 35.1009 9.70618 35.113 9.80314C35.0233 9.76434 34.9724 9.6964 34.9603 9.59944Z" fill="#807E7E"/>
<path opacity="0.267" fill-rule="evenodd" clip-rule="evenodd" d="M13.5716 9.54852C13.4944 9.70298 13.3926 9.8388 13.2661 9.95593C13.3185 9.78324 13.4203 9.64747 13.5716 9.54852Z" fill="#908E8E"/>
<path opacity="0.749" fill-rule="evenodd" clip-rule="evenodd" d="M35.113 9.80315C35.2028 9.84195 35.2537 9.90989 35.2658 10.0068C35.1761 9.96804 35.1252 9.90011 35.113 9.80315Z" fill="#828080"/>
<path opacity="0.494" fill-rule="evenodd" clip-rule="evenodd" d="M13.266 9.95594C13.2698 10.0337 13.2358 10.0846 13.1642 10.1087C13.1605 10.031 13.1944 9.98003 13.266 9.95594Z" fill="#818080"/>
<path opacity="0.439" fill-rule="evenodd" clip-rule="evenodd" d="M35.2658 10.0069C35.3374 10.0309 35.3714 10.0819 35.3677 10.1596C35.2961 10.1355 35.2621 10.0846 35.2658 10.0069Z" fill="#848282"/>
<path opacity="0.643" fill-rule="evenodd" clip-rule="evenodd" d="M13.1642 10.1087C13.1521 10.2057 13.1012 10.2736 13.0114 10.3124C13.0236 10.2154 13.0745 10.1475 13.1642 10.1087Z" fill="#7D7B7B"/>
<path opacity="0.537" fill-rule="evenodd" clip-rule="evenodd" d="M35.3677 10.1596C35.4393 10.1837 35.4732 10.2346 35.4695 10.3124C35.3979 10.2883 35.364 10.2374 35.3677 10.1596Z" fill="#807E7E"/>
<path opacity="0.4" fill-rule="evenodd" clip-rule="evenodd" d="M13.0114 10.3124C13.0151 10.3902 12.9812 10.4411 12.9096 10.4652C12.9059 10.3874 12.9398 10.3365 13.0114 10.3124Z" fill="#929191"/>
<path opacity="0.502" fill-rule="evenodd" clip-rule="evenodd" d="M35.4695 10.3124C35.5592 10.3512 35.6102 10.4191 35.6223 10.5161C35.5326 10.4773 35.4816 10.4094 35.4695 10.3124Z" fill="#848383"/>
<path opacity="0.275" fill-rule="evenodd" clip-rule="evenodd" d="M12.9096 10.4652C12.9133 10.543 12.8793 10.5939 12.8077 10.618C12.804 10.5402 12.838 10.4893 12.9096 10.4652Z" fill="#979595"/>
<path opacity="0.412" fill-rule="evenodd" clip-rule="evenodd" d="M35.6732 10.618C35.7448 10.642 35.7788 10.693 35.775 10.7707C35.7034 10.7466 35.6695 10.6957 35.6732 10.618Z" fill="#8B8989"/>
<path opacity="0.62" fill-rule="evenodd" clip-rule="evenodd" d="M18.8679 10.3124C18.7103 10.5427 18.5406 10.7634 18.3586 10.9744C18.4563 10.6975 18.6261 10.4768 18.8679 10.3124Z" fill="#F08A8C"/>
<path opacity="0.255" fill-rule="evenodd" clip-rule="evenodd" d="M35.7751 10.7707C35.8467 10.7948 35.8807 10.8457 35.8769 10.9235C35.8053 10.8994 35.7714 10.8485 35.7751 10.7707Z" fill="#9C9A9A"/>
<path opacity="0.314" fill-rule="evenodd" clip-rule="evenodd" d="M12.7568 10.7198C12.6973 10.8732 12.6124 11.009 12.5022 11.1272C12.5363 10.9567 12.6212 10.8209 12.7568 10.7198Z" fill="#8E8D8D"/>
<path opacity="0.016" fill-rule="evenodd" clip-rule="evenodd" d="M28.7983 9.59944C29.0839 9.82519 29.364 10.0629 29.6386 10.3124C29.8155 10.6059 30.0107 10.886 30.2242 11.1527C30.2572 11.226 30.2742 11.3024 30.2751 11.3818C30.0376 11.0926 29.817 10.7871 29.6131 10.4652C29.3404 10.1756 29.0688 9.88697 28.7983 9.59944Z" fill="#EE8D8F"/>
<path opacity="0.298" fill-rule="evenodd" clip-rule="evenodd" d="M35.9279 11.0254C35.9995 11.0495 36.0335 11.1004 36.0297 11.1781C35.9581 11.1541 35.9242 11.1031 35.9279 11.0254Z" fill="#A19F9F"/>
<path opacity="0.961" fill-rule="evenodd" clip-rule="evenodd" d="M12.5022 11.1272C12.4712 11.2752 12.4033 11.3941 12.2985 11.4837C12.3279 11.3395 12.3958 11.2207 12.5022 11.1272Z" fill="#6D6B6B"/>
<path opacity="0.624" fill-rule="evenodd" clip-rule="evenodd" d="M18.3586 10.9744C18.2595 11.175 18.1407 11.3618 18.0021 11.5346C18.0031 11.4552 18.0201 11.3788 18.0531 11.3054C18.1528 11.2392 18.2123 11.1459 18.2313 11.0253C18.2655 10.987 18.3079 10.97 18.3586 10.9744Z" fill="#EF8A8B"/>
<path opacity="0.212" fill-rule="evenodd" clip-rule="evenodd" d="M36.0806 11.28C36.187 11.3735 36.2548 11.4923 36.2843 11.6365C36.178 11.543 36.1101 11.4242 36.0806 11.28Z" fill="#AAA8A8"/>
<path opacity="0.114" fill-rule="evenodd" clip-rule="evenodd" d="M12.2984 11.4837C12.2903 11.5679 12.2564 11.6358 12.1966 11.6874C12.1828 11.5917 12.2168 11.5238 12.2984 11.4837Z" fill="#A8A6A6"/>
<path fill-rule="evenodd" clip-rule="evenodd" d="M25.2335 11.8402C24.6084 11.7272 23.9803 11.7102 23.3493 11.7892C23.3706 11.7525 23.4045 11.727 23.4511 11.7129C24.0659 11.5845 24.66 11.6269 25.2335 11.8402Z" fill="#EB787A"/>
<path fill-rule="evenodd" clip-rule="evenodd" d="M25.2335 11.8402C25.4156 11.9635 25.6193 12.0484 25.8446 12.0948C25.8545 12.2176 25.9224 12.2686 26.0483 12.2476C26.2699 12.5405 26.5245 12.7951 26.8122 13.0115C26.8724 13.1908 26.9742 13.3435 27.1177 13.4698C27.138 13.6187 27.2059 13.7376 27.3214 13.8263C27.3312 14.0097 27.3991 14.1625 27.5251 14.2846C27.5472 14.5439 27.6151 14.7815 27.7288 14.9975C27.7463 15.2396 27.7803 15.4772 27.8307 15.7105C27.8307 15.8972 27.8307 16.0839 27.8307 16.2707C25.3184 16.2707 22.806 16.2707 20.2937 16.2707C20.304 15.9647 20.3209 15.6591 20.3447 15.354C20.4467 15.1141 20.5146 14.8595 20.5484 14.5901C20.5944 14.554 20.6114 14.5031 20.5993 14.4374C20.6502 14.4374 20.7011 14.4374 20.7521 14.4374C20.7675 14.2835 20.793 14.1307 20.8284 13.979C21.0693 13.5955 21.3154 13.222 21.5669 12.8587C21.8302 12.6774 22.0678 12.4737 22.2798 12.2476C22.4635 12.1432 22.6587 12.0583 22.8655 11.993C22.9179 11.9758 22.9434 11.9419 22.9419 11.8911C23.091 11.8878 23.2268 11.8538 23.3493 11.7892C23.9803 11.7102 24.6083 11.7272 25.2335 11.8402Z" fill="#EB1E25"/>
<path opacity="0.753" fill-rule="evenodd" clip-rule="evenodd" d="M18.0022 11.5346C17.9373 11.7006 17.8524 11.8534 17.7475 11.993C17.7664 11.7977 17.8513 11.6449 18.0022 11.5346Z" fill="#EF8B8E"/>
<path opacity="0.69" fill-rule="evenodd" clip-rule="evenodd" d="M23.3493 11.7893C23.2268 11.8538 23.091 11.8878 22.9419 11.8911C23.061 11.8127 23.1968 11.7788 23.3493 11.7893Z" fill="#EC898C"/>
<path opacity="0.302" fill-rule="evenodd" clip-rule="evenodd" d="M25.2335 11.8402C25.4627 11.8701 25.6664 11.955 25.8446 12.0948C25.6193 12.0484 25.4156 11.9635 25.2335 11.8402Z" fill="#EE8F91"/>
<path opacity="0.173" fill-rule="evenodd" clip-rule="evenodd" d="M12.1457 11.7892C12.1207 11.9073 12.0697 12.0092 11.9929 12.0948C11.991 11.963 12.0419 11.8611 12.1457 11.7892Z" fill="#A5A3A3"/>
<path opacity="0.212" fill-rule="evenodd" clip-rule="evenodd" d="M9.85404 12.1966C9.30685 12.0554 8.76368 12.0724 8.22443 12.2476C8.35861 12.1545 8.51139 12.095 8.68275 12.0693C8.98831 12.0354 9.29386 12.0354 9.59941 12.0693C9.70905 12.0744 9.7939 12.1168 9.85404 12.1966Z" fill="white"/>
<path opacity="0.722" fill-rule="evenodd" clip-rule="evenodd" d="M22.9419 11.8911C22.9434 11.9419 22.9179 11.9758 22.8655 11.9929C22.6587 12.0583 22.4635 12.1432 22.2798 12.2476C22.4633 12.0624 22.684 11.9436 22.9419 11.8911Z" fill="#ED8689"/>
<path opacity="0.839" fill-rule="evenodd" clip-rule="evenodd" d="M25.8446 12.0948C25.9272 12.1265 25.9951 12.1774 26.0483 12.2476C25.9224 12.2686 25.8545 12.2176 25.8446 12.0948Z" fill="#EE8A8C"/>
<path opacity="0.702" fill-rule="evenodd" clip-rule="evenodd" d="M30.2751 11.3818C30.3723 11.4013 30.4487 11.4523 30.5043 11.5346C30.6565 11.919 30.7838 12.3094 30.8863 12.7059C30.6847 12.2685 30.481 11.8272 30.2751 11.3818Z" fill="#F17F7F"/>
<path opacity="0.208" fill-rule="evenodd" clip-rule="evenodd" d="M11.8911 12.2985C11.896 12.403 11.8621 12.4879 11.7892 12.5531C11.7842 12.4486 11.8182 12.3637 11.8911 12.2985Z" fill="#9A9898"/>
<path opacity="0.6" fill-rule="evenodd" clip-rule="evenodd" d="M36.3862 11.8402C36.5271 12.0374 36.6289 12.2581 36.6917 12.5022C36.6112 12.3915 36.5348 12.2727 36.4626 12.1457C36.4212 12.0471 36.3957 11.9453 36.3862 11.8402Z" fill="#8C8B8B"/>
<path opacity="0.01" fill-rule="evenodd" clip-rule="evenodd" d="M10.6689 12.3494C10.6689 12.4173 10.6689 12.4852 10.6689 12.5531C10.5731 12.5669 10.5053 12.533 10.4652 12.4513C10.5517 12.4499 10.6196 12.4159 10.6689 12.3494Z" fill="#706F6F"/>
<path fill-rule="evenodd" clip-rule="evenodd" d="M26.0483 12.2476C26.3539 12.4513 26.6085 12.7059 26.8122 13.0115C26.5245 12.7951 26.2699 12.5405 26.0483 12.2476Z" fill="#F08184"/>
<path opacity="0.769" fill-rule="evenodd" clip-rule="evenodd" d="M17.6456 12.1457C17.5153 12.5511 17.3626 12.9415 17.1873 13.317C17.201 13.152 17.2349 12.9908 17.2892 12.8332C17.3801 12.6735 17.448 12.5038 17.4929 12.324C17.5372 12.2545 17.5882 12.1951 17.6456 12.1457Z" fill="#EF8486"/>
<path fill-rule="evenodd" clip-rule="evenodd" d="M22.2798 12.2476C22.0678 12.4737 21.8302 12.6774 21.5669 12.8587C21.7593 12.5981 21.9969 12.3944 22.2798 12.2476Z" fill="#F16D6D"/>
<path opacity="0.016" fill-rule="evenodd" clip-rule="evenodd" d="M7.71517 12.5531C7.66837 12.685 7.58347 12.7868 7.46054 12.8587C7.50734 12.7268 7.59223 12.625 7.71517 12.5531Z" fill="#555454"/>
<path opacity="0.251" fill-rule="evenodd" clip-rule="evenodd" d="M11.7383 12.655C11.7433 12.7595 11.7093 12.8444 11.6365 12.9096C11.6315 12.805 11.6654 12.7202 11.7383 12.655Z" fill="#A5A3A3"/>
<path opacity="0.965" fill-rule="evenodd" clip-rule="evenodd" d="M36.7936 12.7568C36.9104 12.903 36.9783 13.0727 36.9973 13.2661C36.8743 13.1215 36.8064 12.9517 36.7936 12.7568Z" fill="#807E7E"/>
<path opacity="0.453" fill-rule="evenodd" clip-rule="evenodd" d="M30.8862 12.7059C30.9979 12.8089 31.0488 12.9447 31.039 13.1133C30.9692 12.9892 30.9183 12.8534 30.8862 12.7059Z" fill="#EE898B"/>
<path opacity="0.729" fill-rule="evenodd" clip-rule="evenodd" d="M21.5669 12.8587C21.3155 13.222 21.0694 13.5955 20.8285 13.979C20.793 14.1307 20.7676 14.2835 20.7521 14.4374C20.7012 14.4374 20.6503 14.4374 20.5993 14.4374C20.6114 14.5031 20.5944 14.554 20.5484 14.5901C20.732 13.9168 21.0715 13.3396 21.5669 12.8587Z" fill="#F07F7F"/>
<path opacity="0.486" fill-rule="evenodd" clip-rule="evenodd" d="M26.8122 13.0115C26.9522 13.1386 27.054 13.2914 27.1177 13.4698C26.9742 13.3435 26.8724 13.1908 26.8122 13.0115Z" fill="#EE8B8C"/>
<path opacity="0.969" fill-rule="evenodd" clip-rule="evenodd" d="M11.6364 12.9096C11.6443 13.0734 11.5934 13.2092 11.4837 13.317C11.5081 13.1671 11.559 13.0313 11.6364 12.9096Z" fill="#636262"/>
<path opacity="0.808" fill-rule="evenodd" clip-rule="evenodd" d="M31.039 13.1133C31.0943 13.1194 31.1283 13.1534 31.1409 13.2151C31.1946 13.416 31.2286 13.6197 31.2427 13.8263C31.1598 13.5973 31.092 13.3596 31.039 13.1133Z" fill="#EF8080"/>
<path opacity="0.749" fill-rule="evenodd" clip-rule="evenodd" d="M36.9973 13.2661C37.1381 13.5154 37.223 13.787 37.2519 14.0809C37.1275 13.8263 37.0426 13.5546 36.9973 13.2661Z" fill="#8A8888"/>
<path fill-rule="evenodd" clip-rule="evenodd" d="M11.4837 13.317C11.4719 13.5432 11.404 13.7469 11.28 13.9281C11.3185 13.7108 11.3864 13.5071 11.4837 13.317Z" fill="#6F6D6D"/>
<path opacity="0.012" fill-rule="evenodd" clip-rule="evenodd" d="M27.1178 13.4698C27.2171 13.5681 27.285 13.6869 27.3215 13.8263C27.2059 13.7375 27.138 13.6187 27.1178 13.4698Z" fill="#ED9D9F"/>
<path opacity="0.388" fill-rule="evenodd" clip-rule="evenodd" d="M7.00226 13.6735C6.95703 13.9063 6.88915 14.127 6.79855 14.3355C6.81225 14.0929 6.88014 13.8722 7.00226 13.6735Z" fill="white"/>
<path opacity="0.133" fill-rule="evenodd" clip-rule="evenodd" d="M17.1873 13.317C17.1399 13.579 17.055 13.8167 16.9327 14.03C16.9833 13.8283 17.0343 13.6246 17.0855 13.4189C17.0981 13.3571 17.132 13.3231 17.1873 13.317Z" fill="#EF9496"/>
<path opacity="0.612" fill-rule="evenodd" clip-rule="evenodd" d="M11.28 13.9281C11.2846 14.0632 11.2507 14.182 11.1781 14.2846C11.1736 14.1495 11.2075 14.0307 11.28 13.9281Z" fill="#8B8A8A"/>
<path opacity="0.71" fill-rule="evenodd" clip-rule="evenodd" d="M27.3214 13.8263C27.4088 13.969 27.4767 14.1218 27.5251 14.2846C27.3992 14.1625 27.3312 14.0097 27.3214 13.8263Z" fill="#EC8E8F"/>
<path opacity="0.035" fill-rule="evenodd" clip-rule="evenodd" d="M37.2519 14.0809C37.3321 14.1625 37.366 14.2643 37.3538 14.3864C37.2736 14.3049 37.2397 14.203 37.2519 14.0809Z" fill="#979595"/>
<path opacity="0.775" fill-rule="evenodd" clip-rule="evenodd" d="M31.2427 13.8263C31.3164 13.8586 31.3503 13.918 31.3445 14.0045C31.4 14.2823 31.434 14.5624 31.4464 14.8448C31.3739 14.5081 31.306 14.1686 31.2427 13.8263Z" fill="#F18486"/>
<path opacity="0.373" fill-rule="evenodd" clip-rule="evenodd" d="M16.9327 14.03C16.9418 14.2144 16.9078 14.3842 16.8308 14.5392C16.8333 14.357 16.8673 14.1873 16.9327 14.03Z" fill="#ED888A"/>
<path opacity="0.722" fill-rule="evenodd" clip-rule="evenodd" d="M27.5252 14.2846C27.6501 14.502 27.718 14.7397 27.7289 14.9976C27.6152 14.7815 27.5473 14.5439 27.5252 14.2846Z" fill="#EE9193"/>
<path opacity="0.714" fill-rule="evenodd" clip-rule="evenodd" d="M16.8308 14.5392C16.7672 14.9183 16.6993 15.2917 16.6271 15.6596C16.6432 15.3004 16.6857 14.9439 16.7544 14.5901C16.7739 14.5618 16.7994 14.5449 16.8308 14.5392Z" fill="#F08384"/>
<path opacity="0.165" fill-rule="evenodd" clip-rule="evenodd" d="M20.5484 14.5901C20.5147 14.8595 20.4468 15.1141 20.3447 15.354C20.3658 15.0821 20.4337 14.8275 20.5484 14.5901Z" fill="#EF8D8F"/>
<path opacity="0.186" fill-rule="evenodd" clip-rule="evenodd" d="M37.4556 14.8448C37.5511 15.0844 37.602 15.3391 37.6084 15.6087C37.5199 15.3678 37.469 15.1131 37.4556 14.8448Z" fill="#8F8E8E"/>
<path opacity="0.204" fill-rule="evenodd" clip-rule="evenodd" d="M11.1781 14.2846C11.0361 14.9514 10.9002 15.6134 10.7707 16.2707C10.8166 15.5829 10.9523 14.9209 11.1781 14.2846Z" fill="#908E8E"/>
<path fill-rule="evenodd" clip-rule="evenodd" d="M11.7383 14.8957C11.7015 15.1676 11.659 15.4392 11.611 15.7105C11.5968 15.7571 11.5713 15.7911 11.5346 15.8123C11.5714 15.5404 11.6139 15.2688 11.6619 14.9975C11.676 14.9509 11.7015 14.917 11.7383 14.8957Z" fill="#740F13"/>
<path opacity="0.365" fill-rule="evenodd" clip-rule="evenodd" d="M27.7289 14.9975C27.7603 15.0032 27.7857 15.0201 27.8052 15.0485C27.8427 15.2681 27.8681 15.4888 27.8816 15.7105C27.8647 15.7105 27.8477 15.7105 27.8307 15.7105C27.7803 15.4772 27.7463 15.2396 27.7289 14.9975Z" fill="#ED8688"/>
<path opacity="0.027" fill-rule="evenodd" clip-rule="evenodd" d="M37.6084 15.6087C37.6544 15.6448 37.6714 15.6957 37.6593 15.7614C38.0592 15.7449 38.4496 15.7618 38.8306 15.8124C38.4232 15.8124 38.0158 15.8124 37.6084 15.8124C37.6084 15.7445 37.6084 15.6765 37.6084 15.6087Z" fill="#B1AEAE"/>
<path opacity="0.012" fill-rule="evenodd" clip-rule="evenodd" d="M6.79852 14.3864C6.77866 14.5565 6.7532 14.7263 6.72213 14.8957C6.73053 19.0719 6.68806 23.2308 6.59482 27.3724C6.59482 27.3555 6.59482 27.3384 6.59482 27.3215C6.63724 23.1542 6.6627 18.9783 6.67121 14.7938C6.6762 14.6399 6.71867 14.5041 6.79852 14.3864Z" fill="#797777"/>
<path opacity="0.078" fill-rule="evenodd" clip-rule="evenodd" d="M16.6271 15.7105C16.6356 15.8811 16.627 16.0508 16.6017 16.2197C16.5899 16.2827 16.5644 16.3337 16.5253 16.3725C16.539 16.1419 16.573 15.9213 16.6271 15.7105Z" fill="#EAA1A4"/>
<path fill-rule="evenodd" clip-rule="evenodd" d="M36.8954 15.6087C36.9853 15.7422 37.0193 15.895 36.9973 16.067C48.4046 16.067 59.8119 16.067 71.2192 16.067C71.236 17.5016 71.2192 18.9276 71.1682 20.3447C71.1682 20.3278 71.1682 20.3107 71.1682 20.2938C71.1682 18.9018 71.1682 17.5098 71.1682 16.1179C59.7609 16.1179 48.3537 16.1179 36.9464 16.1179C36.9405 15.9468 36.9235 15.7771 36.8954 15.6087Z" fill="#7A1115"/>
<path fill-rule="evenodd" clip-rule="evenodd" d="M36.9464 16.1179C48.3537 16.1179 59.7609 16.1179 71.1682 16.1179C71.1682 17.5098 71.1682 18.9018 71.1682 20.2938C59.7441 20.3023 48.3197 20.2938 36.8954 20.2683C48.3027 20.2429 59.71 20.2344 71.1173 20.2429C71.1173 18.9018 71.1173 17.5608 71.1173 16.2198C59.7187 16.2227 48.3281 16.1888 36.9464 16.1179Z" fill="#F61F26"/>
<path opacity="0.933" fill-rule="evenodd" clip-rule="evenodd" d="M20.3447 15.354C20.321 15.6591 20.304 15.9647 20.2938 16.2707C22.8144 16.3216 25.3437 16.3385 27.8817 16.3216C27.8817 16.1179 27.8817 15.9142 27.8817 15.7105C27.949 15.9346 27.949 16.1637 27.8817 16.398C25.3354 16.432 22.7891 16.432 20.2429 16.398C20.1979 16.0867 20.2063 15.7727 20.2683 15.4559C20.2825 15.4092 20.3079 15.3753 20.3447 15.354Z" fill="#F3898C"/>
<path fill-rule="evenodd" clip-rule="evenodd" d="M27.8307 15.7105C27.8476 15.7105 27.8647 15.7105 27.8816 15.7105C27.8816 15.9142 27.8816 16.1179 27.8816 16.3216C25.3437 16.3385 22.8144 16.3215 20.2937 16.2707C22.806 16.2707 25.3184 16.2707 27.8307 16.2707C27.8307 16.0839 27.8307 15.8972 27.8307 15.7105Z" fill="#ED343A"/>
<path fill-rule="evenodd" clip-rule="evenodd" d="M11.5346 15.9651C11.55 16.1836 11.5161 16.3873 11.4327 16.5762C11.4174 16.3578 11.4513 16.1541 11.5346 15.9651Z" fill="#5E0D10"/>
<path opacity="0.4" fill-rule="evenodd" clip-rule="evenodd" d="M31.4464 14.8957C31.5613 15.2872 31.6207 15.6946 31.6247 16.1179C31.6669 17.4167 31.6584 18.7068 31.5992 19.9882C31.6077 18.7489 31.5992 17.5097 31.5738 16.2707C31.5549 15.8085 31.5124 15.3501 31.4464 14.8957Z" fill="#ED9092"/>
<path opacity="0.439" fill-rule="evenodd" clip-rule="evenodd" d="M10.7707 16.3216C10.7501 16.8221 10.7332 17.3229 10.7198 17.8239C10.7436 19.3061 10.9643 20.7575 11.3818 22.178C11.2751 21.9349 11.1817 21.6802 11.1017 21.4141C10.6663 19.73 10.5559 18.0325 10.7707 16.3216Z" fill="#8A8989"/>
<path opacity="0.706" fill-rule="evenodd" clip-rule="evenodd" d="M16.5253 18.9188C16.5322 19.6014 16.5831 20.2805 16.6781 20.9558C16.5952 20.6336 16.5358 20.2941 16.4998 19.9373C16.458 19.5887 16.4665 19.2492 16.5253 18.9188Z" fill="#EF8384"/>
<path fill-rule="evenodd" clip-rule="evenodd" d="M31.5992 19.9882C27.8481 20.0899 24.0796 20.1239 20.2938 20.0901C20.2938 20.2598 20.2938 20.4296 20.2938 20.5993C20.2768 20.5993 20.2598 20.5993 20.2428 20.5993C20.1756 20.4092 20.1756 20.214 20.2428 20.0137C24.0283 19.9882 27.8137 19.9797 31.5992 19.9882Z" fill="#EE6362"/>
<path fill-rule="evenodd" clip-rule="evenodd" d="M20.2428 20.5993C20.2598 20.5993 20.2768 20.5993 20.2938 20.5993C20.3239 20.7331 20.3409 20.8689 20.3447 21.0067C20.2569 20.8906 20.223 20.7548 20.2428 20.5993Z" fill="#EB8B8E"/>
<path opacity="0.498" fill-rule="evenodd" clip-rule="evenodd" d="M37.6084 20.6503C37.5304 20.8165 37.4625 20.9863 37.4047 21.1595C37.4136 20.9877 37.439 20.818 37.4811 20.6503C37.5308 20.5854 37.5733 20.5854 37.6084 20.6503Z" fill="#878585"/>
<path opacity="0.894" fill-rule="evenodd" clip-rule="evenodd" d="M48.7101 21.0576C49.9494 21.0491 51.1887 21.0576 52.4277 21.0831C52.4531 21.1086 52.4786 21.134 52.5041 21.1595C52.5463 23.2256 52.5377 25.2881 52.4786 27.3469C51.2228 27.3724 49.9664 27.3809 48.7101 27.3724C48.7101 25.2675 48.7101 23.1625 48.7101 21.0576Z" fill="#0A0100"/>
<path opacity="0.914" fill-rule="evenodd" clip-rule="evenodd" d="M65.6683 21.0577C66.9195 21.041 68.1672 21.058 69.4113 21.1086C69.4368 23.1965 69.4454 25.2844 69.4368 27.3724C68.1804 27.3724 66.9246 27.3724 65.6683 27.3724C65.6683 25.2675 65.6683 23.1626 65.6683 21.0577Z" fill="black"/>
<path opacity="0.957" fill-rule="evenodd" clip-rule="evenodd" d="M37.8121 21.1086C39.0853 21.1001 40.3585 21.1086 41.6315 21.134C42.4445 23.2274 43.9553 24.0592 46.1639 23.6294C46.8795 23.4285 47.4991 23.0636 48.0226 22.5345C48.1605 22.3373 48.2878 22.1336 48.4046 21.9234C48.464 23.2301 48.4725 24.5372 48.43 25.8446C46.9437 27.5109 45.1189 28.0287 42.9556 27.3979C40.8471 26.6306 39.3448 25.2132 38.4487 23.1456C38.1489 22.4924 37.9367 21.8134 37.8121 21.1086Z" fill="white"/>
<path opacity="0.956" fill-rule="evenodd" clip-rule="evenodd" d="M54.7703 21.1086C56.0439 21.0916 57.317 21.1086 58.5897 21.1595C59.3393 23.1384 60.7652 23.9787 62.8674 23.6803C63.5692 23.5246 64.1976 23.219 64.7516 22.7637C64.9996 22.5134 65.2033 22.2333 65.3627 21.9234C65.4223 23.2302 65.4305 24.5373 65.3882 25.8447C63.561 27.7819 61.4303 28.1808 58.9971 27.0414C57.204 26.0787 55.9482 24.6443 55.2286 22.7382C55.0285 22.2089 54.8757 21.6657 54.7703 21.1086Z" fill="white"/>
<path fill-rule="evenodd" clip-rule="evenodd" d="M11.7892 21.1595C11.8617 21.2621 11.8957 21.3809 11.8911 21.516C11.8186 21.4134 11.7846 21.2946 11.7892 21.1595Z" fill="#580B10"/>
<path fill-rule="evenodd" clip-rule="evenodd" d="M36.7427 21.0067C36.7168 21.1892 36.6659 21.359 36.5899 21.516C36.6054 21.3621 36.6308 21.2093 36.6663 21.0577C36.6858 21.0294 36.7112 21.0124 36.7427 21.0067Z" fill="#911217"/>
<path opacity="0.169" fill-rule="evenodd" clip-rule="evenodd" d="M37.4047 21.1595C37.4081 21.3668 37.3572 21.5535 37.2519 21.7197C37.2713 21.5188 37.3223 21.3321 37.4047 21.1595Z" fill="#9D9B9B"/>
<path fill-rule="evenodd" clip-rule="evenodd" d="M49.0157 21.3632C50.0851 21.3632 51.1546 21.3632 52.224 21.3632C52.224 23.2644 52.224 25.1657 52.224 27.0668C51.1546 27.0668 50.0851 27.0668 49.0157 27.0668C49.0157 25.1657 49.0157 23.2644 49.0157 21.3632Z" fill="#EA1D24"/>
<path fill-rule="evenodd" clip-rule="evenodd" d="M69.1312 27.0668C69.1312 27.0499 69.1312 27.0329 69.1312 27.0159C69.1312 25.1486 69.1312 23.2814 69.1312 21.4141C68.0786 21.4141 67.0265 21.4141 65.9738 21.4141C65.9738 23.2814 65.9738 25.1486 65.9738 27.0159C65.9738 27.0329 65.9738 27.0499 65.9738 27.0668C65.9229 25.1743 65.9061 23.2731 65.9229 21.3632C67.0092 21.3632 68.0959 21.3632 69.1821 21.3632C69.199 23.2731 69.1821 25.1743 69.1312 27.0668Z" fill="#750F13"/>
<path fill-rule="evenodd" clip-rule="evenodd" d="M69.1313 27.0159C69.1313 27.0329 69.1313 27.0499 69.1313 27.0669C68.0786 27.0669 67.0265 27.0669 65.9739 27.0669C65.9739 27.0499 65.9739 27.0329 65.9739 27.0159C66.0248 25.1743 66.0416 23.3241 66.0248 21.4651C67.0433 21.4651 68.0618 21.4651 69.0803 21.4651C69.0635 23.3241 69.0803 25.1743 69.1313 27.0159Z" fill="#EA1D24"/>
<path fill-rule="evenodd" clip-rule="evenodd" d="M69.1313 27.0159C69.0803 25.1743 69.0635 23.324 69.0803 21.465C68.0618 21.465 67.0433 21.465 66.0248 21.465C66.0416 23.324 66.0248 25.1743 65.9739 27.0159C65.9739 25.1486 65.9739 23.2814 65.9739 21.4141C67.0265 21.4141 68.0786 21.4141 69.1313 21.4141C69.1313 23.2814 69.1313 25.1486 69.1313 27.0159Z" fill="#FB2027"/>
<path opacity="0.102" fill-rule="evenodd" clip-rule="evenodd" d="M16.678 20.9558C16.7993 21.2744 16.8673 21.6139 16.8817 21.9743C16.8279 21.7721 16.7685 21.5684 16.7035 21.3632C16.6782 21.2285 16.6697 21.0927 16.678 20.9558Z" fill="#EE9698"/>
<path fill-rule="evenodd" clip-rule="evenodd" d="M11.8911 21.516C11.9225 21.5216 11.948 21.5386 11.9675 21.5669C12.0101 21.7376 12.0526 21.9074 12.0948 22.0762C12.0634 22.0705 12.0379 22.0536 12.0184 22.0252C11.9757 21.8545 11.9333 21.6848 11.8911 21.516Z" fill="#8D1216"/>
<path fill-rule="evenodd" clip-rule="evenodd" d="M36.5389 21.7197C36.5258 21.8609 36.4748 21.9797 36.3862 22.0762C36.3994 21.935 36.4503 21.8162 36.5389 21.7197Z" fill="#8E1216"/>
<path opacity="0.671" fill-rule="evenodd" clip-rule="evenodd" d="M20.3956 21.2104C20.5268 21.4397 20.6541 21.6773 20.7776 21.9234C21.0194 22.2574 21.2825 22.563 21.5669 22.8401C21.0027 22.4257 20.6123 21.8826 20.3956 21.2104Z" fill="#F0898B"/>
<path opacity="0.345" fill-rule="evenodd" clip-rule="evenodd" d="M37.201 21.9234C37.1403 22.2304 37.0385 22.519 36.8954 22.7891C36.9583 22.4814 37.0602 22.1928 37.201 21.9234Z" fill="#9A9999"/>
<path opacity="0.51" fill-rule="evenodd" clip-rule="evenodd" d="M11.3818 22.178C11.462 22.2596 11.496 22.3614 11.4837 22.4836C11.4206 22.3963 11.3867 22.2944 11.3818 22.178Z" fill="#7F7D7D"/>
<path fill-rule="evenodd" clip-rule="evenodd" d="M16.8817 21.9743C16.9783 22.125 17.0292 22.2948 17.0345 22.4836C16.976 22.4687 16.942 22.4263 16.9327 22.3562C16.8991 22.2309 16.8821 22.1036 16.8817 21.9743Z" fill="#F26C6D"/>
<path opacity="0.424" fill-rule="evenodd" clip-rule="evenodd" d="M17.0345 22.4836C17.1159 22.6032 17.1668 22.7389 17.1873 22.891C17.0756 22.788 17.0247 22.6522 17.0345 22.4836Z" fill="#EF888A"/>
<path opacity="0.529" fill-rule="evenodd" clip-rule="evenodd" d="M11.4837 22.4836C11.6485 22.8077 11.7843 23.1471 11.8911 23.5021C11.7063 23.1861 11.5705 22.8466 11.4837 22.4836Z" fill="#848282"/>
<path opacity="0.973" fill-rule="evenodd" clip-rule="evenodd" d="M27.4233 22.7891C27.5918 22.873 27.7277 22.9918 27.8307 23.1456C27.6645 23.0644 27.5286 22.9456 27.4233 22.7891Z" fill="#EF8385"/>
<path fill-rule="evenodd" clip-rule="evenodd" d="M21.5669 22.84C21.7365 22.8569 21.8553 22.9417 21.9233 23.0947C21.7772 23.0472 21.6583 22.9623 21.5669 22.84Z" fill="#F07274"/>
<path opacity="0.784" fill-rule="evenodd" clip-rule="evenodd" d="M27.4233 22.7891C27.3605 22.7779 27.3095 22.7439 27.2706 22.6873C27.0351 23.0245 26.7295 23.2621 26.3539 23.4002C26.646 23.1849 26.9176 22.9388 27.1687 22.6618C27.2951 22.6231 27.3799 22.6656 27.4233 22.7891Z" fill="#EE888A"/>
<path opacity="0.173" fill-rule="evenodd" clip-rule="evenodd" d="M17.1873 22.891C17.2503 23.0004 17.3012 23.1192 17.3401 23.2474C17.2219 23.1665 17.171 23.0477 17.1873 22.891Z" fill="#EE9395"/>
<path opacity="0.4" fill-rule="evenodd" clip-rule="evenodd" d="M36.8954 22.84C36.8873 22.9242 36.8534 22.9921 36.7936 23.0438C36.7798 22.948 36.8137 22.8801 36.8954 22.84Z" fill="#999797"/>
<path fill-rule="evenodd" clip-rule="evenodd" d="M21.9743 23.1456C22.1702 23.1646 22.323 23.2495 22.4326 23.4002C22.2656 23.3337 22.1128 23.2488 21.9743 23.1456Z" fill="#EF7B7E"/>
<path fill-rule="evenodd" clip-rule="evenodd" d="M27.8307 23.1456C28.0966 23.3263 28.3342 23.547 28.5436 23.8076C28.2737 23.6226 28.0361 23.402 27.8307 23.1456Z" fill="#EE7F80"/>
<path opacity="0.498" fill-rule="evenodd" clip-rule="evenodd" d="M22.4326 23.4002C22.5336 23.3827 22.6016 23.4167 22.6363 23.5021C22.5406 23.5159 22.4727 23.4819 22.4326 23.4002Z" fill="#EF8B8D"/>
<path opacity="0.078" fill-rule="evenodd" clip-rule="evenodd" d="M26.3539 23.4002C26.3298 23.4718 26.2789 23.5058 26.2011 23.5021C26.2175 23.4233 26.2684 23.3893 26.3539 23.4002Z" fill="#F29194"/>
<path opacity="0.765" fill-rule="evenodd" clip-rule="evenodd" d="M17.3401 23.2984C17.4275 23.4411 17.4953 23.5939 17.5438 23.7567C17.4187 23.6387 17.3509 23.4859 17.3401 23.2984Z" fill="#EE8F91"/>
<path opacity="0.161" fill-rule="evenodd" clip-rule="evenodd" d="M36.7936 23.0438C36.7064 23.3739 36.5706 23.6794 36.3862 23.9604C36.4931 23.6388 36.6289 23.3333 36.7936 23.0438Z" fill="#939191"/>
<path opacity="0.992" fill-rule="evenodd" clip-rule="evenodd" d="M22.7891 23.553C23.1629 23.607 23.5193 23.6919 23.8586 23.8076C23.4732 23.8088 23.1167 23.7239 22.7891 23.553Z" fill="#F07A7C"/>
<path opacity="0.396" fill-rule="evenodd" clip-rule="evenodd" d="M26.2011 23.5021C25.8131 23.7192 25.3887 23.8211 24.928 23.8076C25.3378 23.6859 25.7622 23.584 26.2011 23.5021Z" fill="#EF7D7E"/>
<path opacity="0.129" fill-rule="evenodd" clip-rule="evenodd" d="M11.8911 23.5021C12.0216 23.689 12.1235 23.8927 12.1966 24.1132C12.047 23.9377 11.9452 23.734 11.8911 23.5021Z" fill="#8F8D8D"/>
<path opacity="0.098" fill-rule="evenodd" clip-rule="evenodd" d="M23.8586 23.8076C24.2151 23.8076 24.5715 23.8076 24.928 23.8076C24.7461 23.8791 24.5509 23.913 24.3424 23.9095C24.1653 23.9183 24.004 23.8843 23.8586 23.8076Z" fill="#E77F83"/>
<path opacity="0.553" fill-rule="evenodd" clip-rule="evenodd" d="M17.5438 23.7567C17.6386 23.8785 17.7066 24.0143 17.7475 24.1641C17.6132 24.0632 17.5453 23.9274 17.5438 23.7567Z" fill="#EF8988"/>
<path opacity="0.965" fill-rule="evenodd" clip-rule="evenodd" d="M28.6455 23.9095C28.8944 24.0732 29.1151 24.2769 29.3076 24.5206C29.056 24.3541 28.8353 24.1504 28.6455 23.9095Z" fill="#EF888A"/>
<path opacity="0.153" fill-rule="evenodd" clip-rule="evenodd" d="M12.1966 24.1132C12.2564 24.1648 12.2903 24.2327 12.2984 24.3169C12.2168 24.2768 12.1828 24.2089 12.1966 24.1132Z" fill="#A09E9E"/>
<path opacity="0.71" fill-rule="evenodd" clip-rule="evenodd" d="M17.7475 24.1641C17.8292 24.2042 17.8632 24.2721 17.8494 24.3678C17.7896 24.3162 17.7557 24.2483 17.7475 24.1641Z" fill="#EE9193"/>
<path opacity="0.259" fill-rule="evenodd" clip-rule="evenodd" d="M36.3353 24.0623C36.2889 24.2401 36.2041 24.3929 36.0806 24.5206C36.127 24.3428 36.2118 24.19 36.3353 24.0623Z" fill="#9F9D9D"/>
<path opacity="0.424" fill-rule="evenodd" clip-rule="evenodd" d="M12.2985 24.3169C12.4048 24.4104 12.4727 24.5292 12.5022 24.6734C12.3958 24.5799 12.3279 24.4611 12.2985 24.3169Z" fill="#8E8C8C"/>
<path opacity="0.094" fill-rule="evenodd" clip-rule="evenodd" d="M17.8494 24.3678C17.9663 24.4306 18.0342 24.5325 18.0531 24.6734C17.9446 24.5988 17.8767 24.497 17.8494 24.3678Z" fill="#EF898B"/>
<path fill-rule="evenodd" clip-rule="evenodd" d="M29.4603 24.6734C29.5588 24.7065 29.6607 24.7234 29.7658 24.7243C29.7741 24.8275 29.7656 24.9294 29.7404 25.0298C29.6988 25.0972 29.6394 25.1311 29.5621 25.1317C29.6057 25.0792 29.6397 25.0198 29.664 24.9534C29.6054 24.8526 29.5375 24.7592 29.4603 24.6734Z" fill="#F05C5A"/>
<path opacity="0.165" fill-rule="evenodd" clip-rule="evenodd" d="M36.0297 24.6224C36.0335 24.7002 35.9995 24.7511 35.9279 24.7752C35.9242 24.6974 35.9581 24.6465 36.0297 24.6224Z" fill="#999797"/>
<path opacity="0.365" fill-rule="evenodd" clip-rule="evenodd" d="M12.5022 24.6734C12.6085 24.7669 12.6764 24.8857 12.7059 25.0298C12.5996 24.9363 12.5317 24.8175 12.5022 24.6734Z" fill="#929090"/>
<path opacity="0.094" fill-rule="evenodd" clip-rule="evenodd" d="M18.053 24.6734C18.17 24.7361 18.2379 24.838 18.2567 24.9789C18.1643 24.8965 18.0964 24.7947 18.053 24.6734Z" fill="#EE9496"/>
<path opacity="0.176" fill-rule="evenodd" clip-rule="evenodd" d="M35.8769 24.8771C35.8807 24.9548 35.8467 25.0057 35.7751 25.0298C35.7714 24.9521 35.8053 24.9011 35.8769 24.8771Z" fill="#949393"/>
<path opacity="0.22" fill-rule="evenodd" clip-rule="evenodd" d="M12.7059 25.0298C12.7775 25.0539 12.8114 25.1049 12.8077 25.1826C12.7361 25.1585 12.7022 25.1076 12.7059 25.0298Z" fill="#A09E9E"/>
<path opacity="0.788" fill-rule="evenodd" clip-rule="evenodd" d="M18.2568 24.9789C18.377 25.0484 18.4619 25.1503 18.5114 25.2845C18.3588 25.2349 18.2739 25.133 18.2568 24.9789Z" fill="#EF8283"/>
<path opacity="0.306" fill-rule="evenodd" clip-rule="evenodd" d="M35.7751 25.0298C35.7623 25.1406 35.7114 25.2255 35.6223 25.2845C35.635 25.1738 35.6859 25.0889 35.7751 25.0298Z" fill="#908E8E"/>
<path opacity="0.165" fill-rule="evenodd" clip-rule="evenodd" d="M12.8077 25.1826C12.8793 25.2067 12.9133 25.2576 12.9096 25.3354C12.838 25.3113 12.804 25.2604 12.8077 25.1826Z" fill="#959393"/>
<path opacity="0.976" fill-rule="evenodd" clip-rule="evenodd" d="M29.5622 25.1317C29.5014 25.3284 29.3826 25.4812 29.2057 25.59C29.3054 25.4224 29.4242 25.2696 29.5622 25.1317Z" fill="#EF8688"/>
<path opacity="0.192" fill-rule="evenodd" clip-rule="evenodd" d="M35.6223 25.2845C35.626 25.3622 35.592 25.4132 35.5204 25.4373C35.5167 25.3595 35.5507 25.3086 35.6223 25.2845Z" fill="#A3A2A2"/>
<path opacity="0.231" fill-rule="evenodd" clip-rule="evenodd" d="M12.9096 25.3354C13.0026 25.4193 13.0705 25.5211 13.1133 25.6409C12.9951 25.5746 12.9272 25.4728 12.9096 25.3354Z" fill="#949292"/>
<path opacity="0.133" fill-rule="evenodd" clip-rule="evenodd" d="M35.5205 25.4372C35.5177 25.5458 35.4668 25.6137 35.3677 25.6409C35.3945 25.5528 35.4454 25.4849 35.5205 25.4372Z" fill="#AAA9A9"/>
<path opacity="0.024" fill-rule="evenodd" clip-rule="evenodd" d="M13.1133 25.6409C13.1849 25.665 13.2188 25.716 13.2151 25.7937C13.1435 25.7696 13.1096 25.7187 13.1133 25.6409Z" fill="#A5A4A4"/>
<path opacity="0.078" fill-rule="evenodd" clip-rule="evenodd" d="M35.3677 25.6409C35.3549 25.7517 35.304 25.8365 35.2149 25.8956C35.2276 25.7849 35.2785 25.7 35.3677 25.6409Z" fill="#949393"/>
<path opacity="0.953" fill-rule="evenodd" clip-rule="evenodd" d="M18.5114 25.2845C18.7437 25.4953 18.9644 25.716 19.1734 25.9465C19.101 25.9359 19.0331 25.9104 18.9697 25.8701C18.8474 25.7335 18.7201 25.6062 18.5878 25.4882C18.5475 25.4248 18.5221 25.3569 18.5114 25.2845Z" fill="#F27A7D"/>
<path opacity="0.031" fill-rule="evenodd" clip-rule="evenodd" d="M13.2151 25.7937C13.3048 25.8325 13.3558 25.9005 13.3679 25.9974C13.2782 25.9586 13.2272 25.8907 13.2151 25.7937Z" fill="#949292"/>
<path opacity="0.059" fill-rule="evenodd" clip-rule="evenodd" d="M35.1131 25.9974C35.1168 26.0752 35.0828 26.1261 35.0112 26.1502C35.0075 26.0724 35.0415 26.0215 35.1131 25.9974Z" fill="#959494"/>
<path opacity="0.063" fill-rule="evenodd" clip-rule="evenodd" d="M13.3679 25.9974C13.4395 26.0215 13.4735 26.0724 13.4698 26.1502C13.3982 26.1261 13.3642 26.0752 13.3679 25.9974Z" fill="#A5A3A3"/>
<path opacity="0.18" fill-rule="evenodd" clip-rule="evenodd" d="M19.2243 25.9974C19.3562 26.0442 19.458 26.1291 19.5299 26.252C19.3971 26.2105 19.2953 26.1256 19.2243 25.9974Z" fill="#EE8A8C"/>
<path opacity="0.02" fill-rule="evenodd" clip-rule="evenodd" d="M34.9603 26.2011C34.964 26.2789 34.93 26.3298 34.8584 26.3539C34.8547 26.2761 34.8887 26.2252 34.9603 26.2011Z" fill="#9C9B9B"/>
<path opacity="0.067" fill-rule="evenodd" clip-rule="evenodd" d="M13.5716 26.252C13.6432 26.2761 13.6772 26.3271 13.6734 26.4048C13.6018 26.3807 13.5679 26.3298 13.5716 26.252Z" fill="#A2A0A0"/>
<path opacity="0.976" fill-rule="evenodd" clip-rule="evenodd" d="M28.7983 25.9974C28.5254 26.3395 28.1859 26.5771 27.7798 26.7104C28.1189 26.4729 28.4584 26.2352 28.7983 25.9974Z" fill="#F18284"/>
<path opacity="0.455" fill-rule="evenodd" clip-rule="evenodd" d="M13.6735 26.4048C13.8105 26.491 13.9123 26.6099 13.979 26.7613C13.8406 26.6738 13.7387 26.5549 13.6735 26.4048Z" fill="#8E8C8C"/>
<path opacity="0.027" fill-rule="evenodd" clip-rule="evenodd" d="M34.7566 26.4557C34.7444 26.5527 34.6935 26.6206 34.6038 26.6595C34.6159 26.5625 34.6668 26.4946 34.7566 26.4557Z" fill="#9A9898"/>
<path opacity="0.961" fill-rule="evenodd" clip-rule="evenodd" d="M19.5299 26.252C19.7934 26.3922 20.048 26.545 20.2938 26.7104C20.084 26.6613 19.8888 26.5764 19.7081 26.4557C19.6367 26.3974 19.5773 26.3296 19.5299 26.252Z" fill="#EE7F80"/>
<path opacity="0.561" fill-rule="evenodd" clip-rule="evenodd" d="M20.2937 26.7104C20.4362 26.7689 20.572 26.8368 20.7011 26.9141C20.5232 26.9124 20.3874 26.8446 20.2937 26.7104Z" fill="#EE7F80"/>
<path opacity="0.957" fill-rule="evenodd" clip-rule="evenodd" d="M27.7798 26.7104C27.7567 26.7592 27.7228 26.8016 27.6779 26.8377C27.5322 26.9212 27.3795 26.9806 27.2196 27.0159C27.393 26.8954 27.5797 26.7935 27.7798 26.7104Z" fill="#F1888A"/>
<path opacity="0.039" fill-rule="evenodd" clip-rule="evenodd" d="M14.0808 26.8632C14.2205 26.9517 14.3224 27.0706 14.3864 27.2196C14.2467 27.1311 14.1449 27.0122 14.0808 26.8632Z" fill="#8D8B8B"/>
<path opacity="0.082" fill-rule="evenodd" clip-rule="evenodd" d="M34.5528 26.7104C34.506 26.8422 34.4212 26.9441 34.2982 27.0159C34.345 26.8841 34.4299 26.7822 34.5528 26.7104Z" fill="#9F9D9D"/>
<path fill-rule="evenodd" clip-rule="evenodd" d="M20.7011 26.9141C20.8317 26.944 20.9505 26.9949 21.0576 27.0669C20.9009 27.0832 20.7821 27.0323 20.7011 26.9141Z" fill="#F07D80"/>
<path opacity="0.969" fill-rule="evenodd" clip-rule="evenodd" d="M21.0576 27.0669C21.2173 27.0721 21.3531 27.123 21.465 27.2196C21.2964 27.2295 21.1606 27.1785 21.0576 27.0669Z" fill="#F07677"/>
<path opacity="0.788" fill-rule="evenodd" clip-rule="evenodd" d="M14.5901 27.4233C14.8757 27.6239 15.1303 27.8616 15.354 28.1363C15.0684 27.9357 14.8138 27.698 14.5901 27.4233Z" fill="#7A7878"/>
<path opacity="0.714" fill-rule="evenodd" clip-rule="evenodd" d="M21.465 27.2196C21.8843 27.2797 22.2917 27.3646 22.6872 27.4743C22.3447 27.4596 22.0052 27.4172 21.6687 27.3469C21.5701 27.3407 21.5022 27.2983 21.465 27.2196Z" fill="#F0797A"/>
<path opacity="0.714" fill-rule="evenodd" clip-rule="evenodd" d="M26.9141 27.1178C26.7079 27.2337 26.4873 27.3271 26.2521 27.3979C26.0336 27.4449 25.8129 27.4703 25.59 27.4743C26.0281 27.3559 26.4694 27.2371 26.9141 27.1178Z" fill="#EE8285"/>
<path opacity="0.067" fill-rule="evenodd" clip-rule="evenodd" d="M22.6873 27.4743C23.5182 27.5185 24.35 27.5355 25.1826 27.5252C25.1438 27.5643 25.0928 27.5898 25.0299 27.6016C24.2649 27.6386 23.501 27.6217 22.7382 27.5506C22.7099 27.5311 22.6929 27.5057 22.6873 27.4743Z" fill="#EF8386"/>
<path opacity="0.039" fill-rule="evenodd" clip-rule="evenodd" d="M33.2798 28.0344C33.2557 28.106 33.2047 28.14 33.127 28.1363C33.1511 28.0647 33.202 28.0307 33.2798 28.0344Z" fill="#ACAAAA"/>
<path opacity="0.886" fill-rule="evenodd" clip-rule="evenodd" d="M15.354 28.1363C15.4858 28.1831 15.5877 28.268 15.6596 28.3909C15.5277 28.3441 15.4259 28.2592 15.354 28.1363Z" fill="#7C7B7B"/>
<path opacity="0.055" fill-rule="evenodd" clip-rule="evenodd" d="M32.9742 28.2891C32.9354 28.3788 32.8674 28.4297 32.7705 28.4419C32.8093 28.3521 32.8772 28.3012 32.9742 28.2891Z" fill="#9A9898"/>
<path opacity="0.718" fill-rule="evenodd" clip-rule="evenodd" d="M15.6595 28.3909C15.7741 28.4205 15.8589 28.4883 15.9142 28.5946C15.7996 28.5651 15.7148 28.4972 15.6595 28.3909Z" fill="#7D7C7C"/>
<path opacity="0.016" fill-rule="evenodd" clip-rule="evenodd" d="M32.7195 28.4928C32.6807 28.5825 32.6128 28.6334 32.5158 28.6455C32.5546 28.5558 32.6226 28.5049 32.7195 28.4928Z" fill="#979696"/>
<path opacity="0.51" fill-rule="evenodd" clip-rule="evenodd" d="M15.9142 28.5946C16.0287 28.6242 16.1136 28.692 16.1688 28.7983C16.0543 28.7688 15.9694 28.7009 15.9142 28.5946Z" fill="#878585"/>
<path opacity="0.043" fill-rule="evenodd" clip-rule="evenodd" d="M32.4649 28.6965C32.4408 28.7681 32.3899 28.802 32.3121 28.7983C32.3362 28.7267 32.3871 28.6928 32.4649 28.6965Z" fill="#9E9C9C"/>
<path opacity="0.686" fill-rule="evenodd" clip-rule="evenodd" d="M16.1688 28.7983C16.2466 28.7946 16.2975 28.8286 16.3216 28.9002C16.2438 28.9039 16.1929 28.8699 16.1688 28.7983Z" fill="#878585"/>
<path opacity="0.012" fill-rule="evenodd" clip-rule="evenodd" d="M32.2612 28.8493C32.1949 28.9675 32.0931 29.0354 31.9557 29.053C32.0396 28.96 32.1414 28.892 32.2612 28.8493Z" fill="#959393"/>
<path opacity="0.529" fill-rule="evenodd" clip-rule="evenodd" d="M16.3216 28.9002C16.4186 28.9123 16.4865 28.9632 16.5253 29.053C16.4283 29.0408 16.3604 28.9899 16.3216 28.9002Z" fill="#807E7E"/>
<path opacity="0.38" fill-rule="evenodd" clip-rule="evenodd" d="M16.5253 29.0529C16.6031 29.0492 16.654 29.0832 16.6781 29.1548C16.6003 29.1585 16.5494 29.1245 16.5253 29.0529Z" fill="#8C8B8B"/>
<path opacity="0.012" fill-rule="evenodd" clip-rule="evenodd" d="M31.9047 29.1039C31.8806 29.1755 31.8297 29.2094 31.752 29.2057C31.776 29.1341 31.827 29.1001 31.9047 29.1039Z" fill="#AEACAC"/>
<path opacity="0.463" fill-rule="evenodd" clip-rule="evenodd" d="M16.6781 29.1548C16.7558 29.1511 16.8068 29.1851 16.8308 29.2567C16.7531 29.2604 16.7022 29.2264 16.6781 29.1548Z" fill="#888787"/>
<path opacity="0.329" fill-rule="evenodd" clip-rule="evenodd" d="M16.8308 29.2567C16.9086 29.2529 16.9595 29.2869 16.9836 29.3585C16.9059 29.3622 16.8549 29.3283 16.8308 29.2567Z" fill="#858383"/>
<path opacity="0.012" fill-rule="evenodd" clip-rule="evenodd" d="M31.5992 29.3076C31.5402 29.3967 31.4553 29.4476 31.3446 29.4603C31.4036 29.3712 31.4885 29.3203 31.5992 29.3076Z" fill="#9C9A9A"/>
<path opacity="0.31" fill-rule="evenodd" clip-rule="evenodd" d="M16.9836 29.3585C17.0614 29.3548 17.1123 29.3888 17.1364 29.4604C17.0587 29.4641 17.0077 29.4301 16.9836 29.3585Z" fill="#949292"/>
<path opacity="0.01" fill-rule="evenodd" clip-rule="evenodd" d="M31.3446 29.4604C31.3205 29.532 31.2696 29.5659 31.1918 29.5622C31.2159 29.4906 31.2668 29.4566 31.3446 29.4604Z" fill="#969494"/>
<path opacity="0.357" fill-rule="evenodd" clip-rule="evenodd" d="M17.2382 29.5113C17.316 29.5076 17.3669 29.5415 17.391 29.6131C17.3132 29.6168 17.2623 29.5829 17.2382 29.5113Z" fill="#949393"/>
<path opacity="0.227" fill-rule="evenodd" clip-rule="evenodd" d="M17.4929 29.6641C17.6036 29.6768 17.6885 29.7277 17.7475 29.8168C17.6368 29.8041 17.5519 29.7532 17.4929 29.6641Z" fill="#979595"/>
<path fill-rule="evenodd" clip-rule="evenodd" d="M19.1734 29.715C19.299 29.728 19.4009 29.7789 19.479 29.8678C19.3533 29.8548 19.2515 29.8038 19.1734 29.715Z" fill="#791013"/>
<path opacity="0.22" fill-rule="evenodd" clip-rule="evenodd" d="M30.9881 29.6641C30.8645 29.7689 30.7287 29.8622 30.5807 29.9442C30.503 29.9955 30.4182 30.021 30.3261 30.0205C30.522 29.863 30.7427 29.7442 30.9881 29.6641Z" fill="#949292"/>
<path opacity="0.102" fill-rule="evenodd" clip-rule="evenodd" d="M18.1549 30.0205C18.2391 30.0287 18.3069 30.0626 18.3586 30.1224C18.2628 30.1362 18.195 30.1022 18.1549 30.0205Z" fill="#9E9D9D"/>
<path opacity="0.141" fill-rule="evenodd" clip-rule="evenodd" d="M30.3261 30.0205C30.2542 30.1244 30.1524 30.1753 30.0205 30.1733C30.1061 30.0965 30.208 30.0456 30.3261 30.0205Z" fill="#969595"/>
<path fill-rule="evenodd" clip-rule="evenodd" d="M18.3586 30.1224C18.5059 30.0985 18.6078 30.1494 18.6642 30.2752C18.5461 30.2501 18.4442 30.1992 18.3586 30.1224Z" fill="#585757"/>
<path fill-rule="evenodd" clip-rule="evenodd" d="M20.5484 30.2242C20.6917 30.2267 20.8274 30.2606 20.9558 30.3261C20.9898 30.2921 21.0237 30.2582 21.0577 30.2242C21.1399 30.2575 21.2248 30.283 21.3123 30.3006C21.2614 30.3176 21.2104 30.3346 21.1595 30.3515C21.2727 30.3804 21.3746 30.4228 21.4651 30.4789C21.1415 30.4369 20.836 30.352 20.5484 30.2242Z" fill="#BC181E"/>
<path opacity="0.275" fill-rule="evenodd" clip-rule="evenodd" d="M18.6641 30.2751C18.7687 30.2702 18.8536 30.3041 18.9188 30.377C18.8142 30.382 18.7293 30.348 18.6641 30.2751Z" fill="#979595"/>
<path opacity="0.894" fill-rule="evenodd" clip-rule="evenodd" d="M18.9188 30.377C19.0711 30.36 19.1899 30.4109 19.2752 30.5298C19.1357 30.5192 19.0168 30.4683 18.9188 30.377Z" fill="#6A6969"/>
<path opacity="0.145" fill-rule="evenodd" clip-rule="evenodd" d="M30.0205 30.1733C29.7708 30.3305 29.4992 30.4494 29.2057 30.5298C29.4571 30.3721 29.7287 30.2533 30.0205 30.1733Z" fill="#8D8C8C"/>
<path opacity="0.624" fill-rule="evenodd" clip-rule="evenodd" d="M29.2057 30.5298C29.1405 30.6027 29.0556 30.6366 28.951 30.6316C29.0089 30.5444 29.0937 30.5104 29.2057 30.5298Z" fill="#7F7E7E"/>
<path fill-rule="evenodd" clip-rule="evenodd" d="M21.6688 30.5298C22.783 30.681 23.9034 30.7489 25.0298 30.7335C25.1147 30.7335 25.1996 30.7335 25.2845 30.7335C24.0694 30.8442 22.8642 30.7763 21.6688 30.5298Z" fill="#851116"/>
<path fill-rule="evenodd" clip-rule="evenodd" d="M26.7104 30.5298C26.2473 30.637 25.772 30.7049 25.2844 30.7335C25.1995 30.7335 25.1147 30.7335 25.0298 30.7335C25.5777 30.6225 26.1379 30.5546 26.7104 30.5298Z" fill="#AF161B"/>
<path opacity="0.204" fill-rule="evenodd" clip-rule="evenodd" d="M28.9511 30.6316C28.8695 30.7118 28.7677 30.7458 28.6455 30.7335C28.7328 30.6705 28.8347 30.6365 28.9511 30.6316Z" fill="#999898"/>
<path opacity="0.098" fill-rule="evenodd" clip-rule="evenodd" d="M19.5299 30.6316C19.6463 30.6365 19.7482 30.6705 19.8355 30.7335C19.7133 30.7458 19.6115 30.7118 19.5299 30.6316Z" fill="#9D9C9C"/>
<path opacity="0.514" fill-rule="evenodd" clip-rule="evenodd" d="M28.6455 30.7335C28.5727 30.7863 28.4878 30.8203 28.3909 30.8353C28.4487 30.7481 28.5336 30.7141 28.6455 30.7335Z" fill="#828080"/>
<path opacity="0.357" fill-rule="evenodd" clip-rule="evenodd" d="M19.8354 30.7335C20.3202 30.8545 20.7955 30.9903 21.2613 31.1409C20.7629 31.0674 20.2876 30.9316 19.8354 30.7335Z" fill="#8B8A8A"/>
<path opacity="0.553" fill-rule="evenodd" clip-rule="evenodd" d="M28.34 30.8353C27.6049 31.1081 26.8411 31.2778 26.0483 31.3446C26.8096 31.1888 27.5735 31.0191 28.34 30.8353Z" fill="#8C8B8B"/>
<path opacity="0.435" fill-rule="evenodd" clip-rule="evenodd" d="M21.2614 31.1409C21.7467 31.1979 22.2221 31.2828 22.6873 31.3955C22.1959 31.3646 21.7205 31.2797 21.2614 31.1409Z" fill="#807F7F"/>
<path opacity="0.102" fill-rule="evenodd" clip-rule="evenodd" d="M26.0483 31.3446C25.7044 31.4322 25.348 31.4662 24.9789 31.4464C25.3261 31.3922 25.6825 31.3582 26.0483 31.3446Z" fill="#979595"/>
</svg>
